<svg xmlns="http://www.w3.org/2000/svg" viewBox="0 0 660 642" font-family="'Hiragino Maru Gothic ProN','Hiragino Sans','Yu Gothic',sans-serif">
<rect width="660" height="642" fill="#FFFFFF"/>
<text x="330.0" y="26" text-anchor="middle" font-size="18" font-weight="bold" fill="#4A4259">日本の4都市の雨温図</text>
<g transform="translate(0,40)">
<rect x="46" y="44" width="246" height="216" fill="none" stroke="#C9C4D3" stroke-width="1.5"/>
<circle cx="165.0" cy="18" r="15" fill="#FFD97D" stroke="#4A4259" stroke-width="2"/>
<text x="165.0" y="25" text-anchor="middle" font-size="19" font-weight="bold" fill="#4A4259">A</text>
<line x1="46" y1="260" x2="292" y2="260" stroke="#C9C4D3" stroke-width="1" stroke-dasharray="3 3"/>
<text x="41" y="265.0" text-anchor="end" font-size="13" fill="#2E6B8C">0</text>
<line x1="46" y1="206" x2="292" y2="206" stroke="#C9C4D3" stroke-width="1" stroke-dasharray="3 3"/>
<text x="41" y="211.0" text-anchor="end" font-size="13" fill="#2E6B8C">100</text>
<line x1="46" y1="152" x2="292" y2="152" stroke="#C9C4D3" stroke-width="1" stroke-dasharray="3 3"/>
<text x="41" y="157.0" text-anchor="end" font-size="13" fill="#2E6B8C">200</text>
<line x1="46" y1="98" x2="292" y2="98" stroke="#C9C4D3" stroke-width="1" stroke-dasharray="3 3"/>
<text x="41" y="103.0" text-anchor="end" font-size="13" fill="#2E6B8C">300</text>
<line x1="46" y1="44" x2="292" y2="44" stroke="#C9C4D3" stroke-width="1" stroke-dasharray="3 3"/>
<text x="41" y="49.0" text-anchor="end" font-size="13" fill="#2E6B8C">400</text>
<text x="44" y="34" text-anchor="start" font-size="12" fill="#2E6B8C">降水量(mm)</text>
<text x="297" y="265.0" text-anchor="start" font-size="13" fill="#B23A48">-10</text>
<text x="297" y="211.0" text-anchor="start" font-size="13" fill="#B23A48">0</text>
<text x="297" y="157.0" text-anchor="start" font-size="13" fill="#B23A48">10</text>
<text x="297" y="103.0" text-anchor="start" font-size="13" fill="#B23A48">20</text>
<text x="297" y="49.0" text-anchor="start" font-size="13" fill="#B23A48">30</text>
<text x="294" y="34" text-anchor="end" font-size="12" fill="#B23A48">気温(℃)</text>
<rect x="50" y="228" width="12" height="32" fill="#FFD97D"/>
<rect x="71" y="229" width="12" height="31" fill="#FFD97D"/>
<rect x="91" y="197" width="12" height="63" fill="#FFD97D"/>
<rect x="112" y="188" width="12" height="72" fill="#FFD97D"/>
<rect x="132" y="185" width="12" height="75" fill="#FFD97D"/>
<rect x="153" y="169" width="12" height="91" fill="#FFD97D"/>
<rect x="173" y="176" width="12" height="84" fill="#FFD97D"/>
<rect x="194" y="176" width="12" height="84" fill="#FFD97D"/>
<rect x="214" y="139" width="12" height="121" fill="#FFD97D"/>
<rect x="235" y="133" width="12" height="127" fill="#FFD97D"/>
<rect x="255" y="208" width="12" height="52" fill="#FFD97D"/>
<rect x="276" y="229" width="12" height="31" fill="#FFD97D"/>
<polyline points="56,177 77,173 97,155 118,129 138,104 159,88 179,67 200,61 220,80 241,109 261,138 282,164" fill="none" stroke="#E8A0BF" stroke-width="3"/>
<circle cx="56" cy="177" r="3" fill="#E8A0BF"/>
<text x="56.25" y="278" text-anchor="middle" font-size="13" fill="#4A4259">1</text>
<circle cx="77" cy="173" r="3" fill="#E8A0BF"/>
<text x="76.75" y="278" text-anchor="middle" font-size="13" fill="#4A4259">2</text>
<circle cx="97" cy="155" r="3" fill="#E8A0BF"/>
<text x="97.25" y="278" text-anchor="middle" font-size="13" fill="#4A4259">3</text>
<circle cx="118" cy="129" r="3" fill="#E8A0BF"/>
<text x="117.75" y="278" text-anchor="middle" font-size="13" fill="#4A4259">4</text>
<circle cx="138" cy="104" r="3" fill="#E8A0BF"/>
<text x="138.25" y="278" text-anchor="middle" font-size="13" fill="#4A4259">5</text>
<circle cx="159" cy="88" r="3" fill="#E8A0BF"/>
<text x="158.75" y="278" text-anchor="middle" font-size="13" fill="#4A4259">6</text>
<circle cx="179" cy="67" r="3" fill="#E8A0BF"/>
<text x="179.25" y="278" text-anchor="middle" font-size="13" fill="#4A4259">7</text>
<circle cx="200" cy="61" r="3" fill="#E8A0BF"/>
<text x="199.75" y="278" text-anchor="middle" font-size="13" fill="#4A4259">8</text>
<circle cx="220" cy="80" r="3" fill="#E8A0BF"/>
<text x="220.25" y="278" text-anchor="middle" font-size="13" fill="#4A4259">9</text>
<circle cx="241" cy="109" r="3" fill="#E8A0BF"/>
<text x="240.75" y="278" text-anchor="middle" font-size="13" fill="#4A4259">10</text>
<circle cx="261" cy="138" r="3" fill="#E8A0BF"/>
<text x="261.25" y="278" text-anchor="middle" font-size="13" fill="#4A4259">11</text>
<circle cx="282" cy="164" r="3" fill="#E8A0BF"/>
<text x="281.75" y="278" text-anchor="middle" font-size="13" fill="#4A4259">12</text>
</g>
<g transform="translate(330,40)">
<rect x="46" y="44" width="246" height="216" fill="none" stroke="#C9C4D3" stroke-width="1.5"/>
<circle cx="165.0" cy="18" r="15" fill="#FFD97D" stroke="#4A4259" stroke-width="2"/>
<text x="165.0" y="25" text-anchor="middle" font-size="19" font-weight="bold" fill="#4A4259">B</text>
<line x1="46" y1="260" x2="292" y2="260" stroke="#C9C4D3" stroke-width="1" stroke-dasharray="3 3"/>
<text x="41" y="265.0" text-anchor="end" font-size="13" fill="#2E6B8C">0</text>
<line x1="46" y1="206" x2="292" y2="206" stroke="#C9C4D3" stroke-width="1" stroke-dasharray="3 3"/>
<text x="41" y="211.0" text-anchor="end" font-size="13" fill="#2E6B8C">100</text>
<line x1="46" y1="152" x2="292" y2="152" stroke="#C9C4D3" stroke-width="1" stroke-dasharray="3 3"/>
<text x="41" y="157.0" text-anchor="end" font-size="13" fill="#2E6B8C">200</text>
<line x1="46" y1="98" x2="292" y2="98" stroke="#C9C4D3" stroke-width="1" stroke-dasharray="3 3"/>
<text x="41" y="103.0" text-anchor="end" font-size="13" fill="#2E6B8C">300</text>
<line x1="46" y1="44" x2="292" y2="44" stroke="#C9C4D3" stroke-width="1" stroke-dasharray="3 3"/>
<text x="41" y="49.0" text-anchor="end" font-size="13" fill="#2E6B8C">400</text>
<text x="44" y="34" text-anchor="start" font-size="12" fill="#2E6B8C">降水量(mm)</text>
<text x="297" y="265.0" text-anchor="start" font-size="13" fill="#B23A48">-10</text>
<text x="297" y="211.0" text-anchor="start" font-size="13" fill="#B23A48">0</text>
<text x="297" y="157.0" text-anchor="start" font-size="13" fill="#B23A48">10</text>
<text x="297" y="103.0" text-anchor="start" font-size="13" fill="#B23A48">20</text>
<text x="297" y="49.0" text-anchor="start" font-size="13" fill="#B23A48">30</text>
<text x="294" y="34" text-anchor="end" font-size="12" fill="#B23A48">気温(℃)</text>
<rect x="50" y="239" width="12" height="21" fill="#FFD97D"/>
<rect x="71" y="235" width="12" height="25" fill="#FFD97D"/>
<rect x="91" y="216" width="12" height="44" fill="#FFD97D"/>
<rect x="112" y="220" width="12" height="40" fill="#FFD97D"/>
<rect x="132" y="206" width="12" height="54" fill="#FFD97D"/>
<rect x="153" y="177" width="12" height="83" fill="#FFD97D"/>
<rect x="173" y="174" width="12" height="86" fill="#FFD97D"/>
<rect x="194" y="203" width="12" height="57" fill="#FFD97D"/>
<rect x="214" y="170" width="12" height="90" fill="#FFD97D"/>
<rect x="235" y="195" width="12" height="65" fill="#FFD97D"/>
<rect x="255" y="230" width="12" height="30" fill="#FFD97D"/>
<rect x="276" y="235" width="12" height="25" fill="#FFD97D"/>
<polyline points="56,174 77,172 97,155 118,127 138,99 159,80 179,58 200,52 220,73 241,103 261,135 282,162" fill="none" stroke="#E8A0BF" stroke-width="3"/>
<circle cx="56" cy="174" r="3" fill="#E8A0BF"/>
<text x="56.25" y="278" text-anchor="middle" font-size="13" fill="#4A4259">1</text>
<circle cx="77" cy="172" r="3" fill="#E8A0BF"/>
<text x="76.75" y="278" text-anchor="middle" font-size="13" fill="#4A4259">2</text>
<circle cx="97" cy="155" r="3" fill="#E8A0BF"/>
<text x="97.25" y="278" text-anchor="middle" font-size="13" fill="#4A4259">3</text>
<circle cx="118" cy="127" r="3" fill="#E8A0BF"/>
<text x="117.75" y="278" text-anchor="middle" font-size="13" fill="#4A4259">4</text>
<circle cx="138" cy="99" r="3" fill="#E8A0BF"/>
<text x="138.25" y="278" text-anchor="middle" font-size="13" fill="#4A4259">5</text>
<circle cx="159" cy="80" r="3" fill="#E8A0BF"/>
<text x="158.75" y="278" text-anchor="middle" font-size="13" fill="#4A4259">6</text>
<circle cx="179" cy="58" r="3" fill="#E8A0BF"/>
<text x="179.25" y="278" text-anchor="middle" font-size="13" fill="#4A4259">7</text>
<circle cx="200" cy="52" r="3" fill="#E8A0BF"/>
<text x="199.75" y="278" text-anchor="middle" font-size="13" fill="#4A4259">8</text>
<circle cx="220" cy="73" r="3" fill="#E8A0BF"/>
<text x="220.25" y="278" text-anchor="middle" font-size="13" fill="#4A4259">9</text>
<circle cx="241" cy="103" r="3" fill="#E8A0BF"/>
<text x="240.75" y="278" text-anchor="middle" font-size="13" fill="#4A4259">10</text>
<circle cx="261" cy="135" r="3" fill="#E8A0BF"/>
<text x="261.25" y="278" text-anchor="middle" font-size="13" fill="#4A4259">11</text>
<circle cx="282" cy="162" r="3" fill="#E8A0BF"/>
<text x="281.75" y="278" text-anchor="middle" font-size="13" fill="#4A4259">12</text>
</g>
<g transform="translate(0,330)">
<rect x="46" y="44" width="246" height="216" fill="none" stroke="#C9C4D3" stroke-width="1.5"/>
<circle cx="165.0" cy="18" r="15" fill="#FFD97D" stroke="#4A4259" stroke-width="2"/>
<text x="165.0" y="25" text-anchor="middle" font-size="19" font-weight="bold" fill="#4A4259">C</text>
<line x1="46" y1="260" x2="292" y2="260" stroke="#C9C4D3" stroke-width="1" stroke-dasharray="3 3"/>
<text x="41" y="265.0" text-anchor="end" font-size="13" fill="#2E6B8C">0</text>
<line x1="46" y1="206" x2="292" y2="206" stroke="#C9C4D3" stroke-width="1" stroke-dasharray="3 3"/>
<text x="41" y="211.0" text-anchor="end" font-size="13" fill="#2E6B8C">100</text>
<line x1="46" y1="152" x2="292" y2="152" stroke="#C9C4D3" stroke-width="1" stroke-dasharray="3 3"/>
<text x="41" y="157.0" text-anchor="end" font-size="13" fill="#2E6B8C">200</text>
<line x1="46" y1="98" x2="292" y2="98" stroke="#C9C4D3" stroke-width="1" stroke-dasharray="3 3"/>
<text x="41" y="103.0" text-anchor="end" font-size="13" fill="#2E6B8C">300</text>
<line x1="46" y1="44" x2="292" y2="44" stroke="#C9C4D3" stroke-width="1" stroke-dasharray="3 3"/>
<text x="41" y="49.0" text-anchor="end" font-size="13" fill="#2E6B8C">400</text>
<text x="44" y="34" text-anchor="start" font-size="12" fill="#2E6B8C">降水量(mm)</text>
<text x="297" y="265.0" text-anchor="start" font-size="13" fill="#B23A48">-10</text>
<text x="297" y="211.0" text-anchor="start" font-size="13" fill="#B23A48">0</text>
<text x="297" y="157.0" text-anchor="start" font-size="13" fill="#B23A48">10</text>
<text x="297" y="103.0" text-anchor="start" font-size="13" fill="#B23A48">20</text>
<text x="297" y="49.0" text-anchor="start" font-size="13" fill="#B23A48">30</text>
<text x="294" y="34" text-anchor="end" font-size="12" fill="#B23A48">気温(℃)</text>
<rect x="50" y="122" width="12" height="138" fill="#FFD97D"/>
<rect x="71" y="172" width="12" height="88" fill="#FFD97D"/>
<rect x="91" y="175" width="12" height="85" fill="#FFD97D"/>
<rect x="112" y="182" width="12" height="78" fill="#FFD97D"/>
<rect x="132" y="185" width="12" height="75" fill="#FFD97D"/>
<rect x="153" y="168" width="12" height="92" fill="#FFD97D"/>
<rect x="173" y="134" width="12" height="126" fill="#FFD97D"/>
<rect x="194" y="163" width="12" height="97" fill="#FFD97D"/>
<rect x="214" y="135" width="12" height="125" fill="#FFD97D"/>
<rect x="235" y="164" width="12" height="96" fill="#FFD97D"/>
<rect x="255" y="125" width="12" height="135" fill="#FFD97D"/>
<rect x="276" y="97" width="12" height="163" fill="#FFD97D"/>
<polyline points="56,184 77,183 97,167 118,138 138,110 159,89 179,67 200,59 220,81 241,111 261,142 282,169" fill="none" stroke="#E8A0BF" stroke-width="3"/>
<circle cx="56" cy="184" r="3" fill="#E8A0BF"/>
<text x="56.25" y="278" text-anchor="middle" font-size="13" fill="#4A4259">1</text>
<circle cx="77" cy="183" r="3" fill="#E8A0BF"/>
<text x="76.75" y="278" text-anchor="middle" font-size="13" fill="#4A4259">2</text>
<circle cx="97" cy="167" r="3" fill="#E8A0BF"/>
<text x="97.25" y="278" text-anchor="middle" font-size="13" fill="#4A4259">3</text>
<circle cx="118" cy="138" r="3" fill="#E8A0BF"/>
<text x="117.75" y="278" text-anchor="middle" font-size="13" fill="#4A4259">4</text>
<circle cx="138" cy="110" r="3" fill="#E8A0BF"/>
<text x="138.25" y="278" text-anchor="middle" font-size="13" fill="#4A4259">5</text>
<circle cx="159" cy="89" r="3" fill="#E8A0BF"/>
<text x="158.75" y="278" text-anchor="middle" font-size="13" fill="#4A4259">6</text>
<circle cx="179" cy="67" r="3" fill="#E8A0BF"/>
<text x="179.25" y="278" text-anchor="middle" font-size="13" fill="#4A4259">7</text>
<circle cx="200" cy="59" r="3" fill="#E8A0BF"/>
<text x="199.75" y="278" text-anchor="middle" font-size="13" fill="#4A4259">8</text>
<circle cx="220" cy="81" r="3" fill="#E8A0BF"/>
<text x="220.25" y="278" text-anchor="middle" font-size="13" fill="#4A4259">9</text>
<circle cx="241" cy="111" r="3" fill="#E8A0BF"/>
<text x="240.75" y="278" text-anchor="middle" font-size="13" fill="#4A4259">10</text>
<circle cx="261" cy="142" r="3" fill="#E8A0BF"/>
<text x="261.25" y="278" text-anchor="middle" font-size="13" fill="#4A4259">11</text>
<circle cx="282" cy="169" r="3" fill="#E8A0BF"/>
<text x="281.75" y="278" text-anchor="middle" font-size="13" fill="#4A4259">12</text>
</g>
<g transform="translate(330,330)">
<rect x="46" y="44" width="246" height="216" fill="none" stroke="#C9C4D3" stroke-width="1.5"/>
<circle cx="165.0" cy="18" r="15" fill="#FFD97D" stroke="#4A4259" stroke-width="2"/>
<text x="165.0" y="25" text-anchor="middle" font-size="19" font-weight="bold" fill="#4A4259">D</text>
<line x1="46" y1="260" x2="292" y2="260" stroke="#C9C4D3" stroke-width="1" stroke-dasharray="3 3"/>
<text x="41" y="265.0" text-anchor="end" font-size="13" fill="#2E6B8C">0</text>
<line x1="46" y1="206" x2="292" y2="206" stroke="#C9C4D3" stroke-width="1" stroke-dasharray="3 3"/>
<text x="41" y="211.0" text-anchor="end" font-size="13" fill="#2E6B8C">100</text>
<line x1="46" y1="152" x2="292" y2="152" stroke="#C9C4D3" stroke-width="1" stroke-dasharray="3 3"/>
<text x="41" y="157.0" text-anchor="end" font-size="13" fill="#2E6B8C">200</text>
<line x1="46" y1="98" x2="292" y2="98" stroke="#C9C4D3" stroke-width="1" stroke-dasharray="3 3"/>
<text x="41" y="103.0" text-anchor="end" font-size="13" fill="#2E6B8C">300</text>
<line x1="46" y1="44" x2="292" y2="44" stroke="#C9C4D3" stroke-width="1" stroke-dasharray="3 3"/>
<text x="41" y="49.0" text-anchor="end" font-size="13" fill="#2E6B8C">400</text>
<text x="44" y="34" text-anchor="start" font-size="12" fill="#2E6B8C">降水量(mm)</text>
<text x="297" y="265.0" text-anchor="start" font-size="13" fill="#B23A48">-10</text>
<text x="297" y="211.0" text-anchor="start" font-size="13" fill="#B23A48">0</text>
<text x="297" y="157.0" text-anchor="start" font-size="13" fill="#B23A48">10</text>
<text x="297" y="103.0" text-anchor="start" font-size="13" fill="#B23A48">20</text>
<text x="297" y="49.0" text-anchor="start" font-size="13" fill="#B23A48">30</text>
<text x="294" y="34" text-anchor="end" font-size="12" fill="#B23A48">気温(℃)</text>
<rect x="50" y="239" width="12" height="21" fill="#FFD97D"/>
<rect x="71" y="239" width="12" height="21" fill="#FFD97D"/>
<rect x="91" y="218" width="12" height="42" fill="#FFD97D"/>
<rect x="112" y="216" width="12" height="44" fill="#FFD97D"/>
<rect x="132" y="209" width="12" height="51" fill="#FFD97D"/>
<rect x="153" y="198" width="12" height="62" fill="#FFD97D"/>
<rect x="173" y="189" width="12" height="71" fill="#FFD97D"/>
<rect x="194" y="205" width="12" height="55" fill="#FFD97D"/>
<rect x="214" y="180" width="12" height="80" fill="#FFD97D"/>
<rect x="235" y="191" width="12" height="69" fill="#FFD97D"/>
<rect x="255" y="230" width="12" height="30" fill="#FFD97D"/>
<rect x="276" y="242" width="12" height="18" fill="#FFD97D"/>
<polyline points="56,208 77,203 97,181 118,148 138,117 159,97 179,75 200,70 220,96 241,131 261,164 282,192" fill="none" stroke="#E8A0BF" stroke-width="3"/>
<circle cx="56" cy="208" r="3" fill="#E8A0BF"/>
<text x="56.25" y="278" text-anchor="middle" font-size="13" fill="#4A4259">1</text>
<circle cx="77" cy="203" r="3" fill="#E8A0BF"/>
<text x="76.75" y="278" text-anchor="middle" font-size="13" fill="#4A4259">2</text>
<circle cx="97" cy="181" r="3" fill="#E8A0BF"/>
<text x="97.25" y="278" text-anchor="middle" font-size="13" fill="#4A4259">3</text>
<circle cx="118" cy="148" r="3" fill="#E8A0BF"/>
<text x="117.75" y="278" text-anchor="middle" font-size="13" fill="#4A4259">4</text>
<circle cx="138" cy="117" r="3" fill="#E8A0BF"/>
<text x="138.25" y="278" text-anchor="middle" font-size="13" fill="#4A4259">5</text>
<circle cx="159" cy="97" r="3" fill="#E8A0BF"/>
<text x="158.75" y="278" text-anchor="middle" font-size="13" fill="#4A4259">6</text>
<circle cx="179" cy="75" r="3" fill="#E8A0BF"/>
<text x="179.25" y="278" text-anchor="middle" font-size="13" fill="#4A4259">7</text>
<circle cx="200" cy="70" r="3" fill="#E8A0BF"/>
<text x="199.75" y="278" text-anchor="middle" font-size="13" fill="#4A4259">8</text>
<circle cx="220" cy="96" r="3" fill="#E8A0BF"/>
<text x="220.25" y="278" text-anchor="middle" font-size="13" fill="#4A4259">9</text>
<circle cx="241" cy="131" r="3" fill="#E8A0BF"/>
<text x="240.75" y="278" text-anchor="middle" font-size="13" fill="#4A4259">10</text>
<circle cx="261" cy="164" r="3" fill="#E8A0BF"/>
<text x="261.25" y="278" text-anchor="middle" font-size="13" fill="#4A4259">11</text>
<circle cx="282" cy="192" r="3" fill="#E8A0BF"/>
<text x="281.75" y="278" text-anchor="middle" font-size="13" fill="#4A4259">12</text>
</g>
<text x="330.0" y="632" text-anchor="middle" font-size="12" fill="#7A7488">気象庁 平年値（統計期間1991〜2020年）にもとづく自作グラフ</text>
</svg>
