<svg xmlns="http://www.w3.org/2000/svg" viewBox="0 0 520 380" font-family="'Hiragino Maru Gothic ProN','Hiragino Sans','Yu Gothic',sans-serif">
<rect width="520" height="380" fill="#FFFFFF"/>
<text x="260.0" y="24" text-anchor="middle" font-size="18" font-weight="bold" fill="#4A4259">那覇（南西諸島の気候）</text>
<rect x="55" y="55" width="420" height="285" fill="none" stroke="#C9C4D3" stroke-width="1.5"/>
<line x1="55" y1="340" x2="475" y2="340" stroke="#C9C4D3" stroke-width="1" stroke-dasharray="3 3"/>
<text x="47" y="344.0" text-anchor="end" font-size="12" fill="#4A4259">0</text>
<line x1="55" y1="251" x2="475" y2="251" stroke="#C9C4D3" stroke-width="1" stroke-dasharray="3 3"/>
<text x="47" y="254.9375" text-anchor="end" font-size="12" fill="#4A4259">100</text>
<line x1="55" y1="162" x2="475" y2="162" stroke="#C9C4D3" stroke-width="1" stroke-dasharray="3 3"/>
<text x="47" y="165.875" text-anchor="end" font-size="12" fill="#4A4259">200</text>
<line x1="55" y1="73" x2="475" y2="73" stroke="#C9C4D3" stroke-width="1" stroke-dasharray="3 3"/>
<text x="47" y="76.8125" text-anchor="end" font-size="12" fill="#4A4259">300</text>
<text x="16" y="45" text-anchor="start" font-size="12" fill="#2E6B8C">降水量(mm)</text>
<text x="485" y="344.0" text-anchor="start" font-size="12" fill="#B23A48">-10</text>
<text x="485" y="276.1428571428571" text-anchor="start" font-size="12" fill="#B23A48">0</text>
<text x="485" y="208.2857142857143" text-anchor="start" font-size="12" fill="#B23A48">10</text>
<text x="485" y="140.42857142857144" text-anchor="start" font-size="12" fill="#B23A48">20</text>
<text x="485" y="72.57142857142858" text-anchor="start" font-size="12" fill="#B23A48">30</text>
<text x="510" y="45" text-anchor="end" font-size="12" fill="#B23A48">気温(℃)</text>
<rect x="62" y="250" width="21" height="90" fill="#FFD97D"/>
<rect x="97" y="238" width="21" height="102" fill="#FFD97D"/>
<rect x="132" y="213" width="21" height="127" fill="#FFD97D"/>
<rect x="167" y="197" width="21" height="143" fill="#FFD97D"/>
<rect x="202" y="122" width="21" height="218" fill="#FFD97D"/>
<rect x="237" y="87" width="21" height="253" fill="#FFD97D"/>
<rect x="272" y="172" width="21" height="168" fill="#FFD97D"/>
<rect x="307" y="126" width="21" height="214" fill="#FFD97D"/>
<rect x="342" y="95" width="21" height="245" fill="#FFD97D"/>
<rect x="377" y="180" width="21" height="160" fill="#FFD97D"/>
<rect x="412" y="234" width="21" height="106" fill="#FFD97D"/>
<rect x="447" y="242" width="21" height="98" fill="#FFD97D"/>
<polyline points="72,155 108,153 142,143 178,126 212,108 248,88 282,75 318,75 352,83 388,99 422,119 458,143" fill="none" stroke="#E8A0BF" stroke-width="3"/>
<circle cx="72" cy="155" r="3.5" fill="#E8A0BF"/>
<circle cx="108" cy="153" r="3.5" fill="#E8A0BF"/>
<circle cx="142" cy="143" r="3.5" fill="#E8A0BF"/>
<circle cx="178" cy="126" r="3.5" fill="#E8A0BF"/>
<circle cx="212" cy="108" r="3.5" fill="#E8A0BF"/>
<circle cx="248" cy="88" r="3.5" fill="#E8A0BF"/>
<circle cx="282" cy="75" r="3.5" fill="#E8A0BF"/>
<circle cx="318" cy="75" r="3.5" fill="#E8A0BF"/>
<circle cx="352" cy="83" r="3.5" fill="#E8A0BF"/>
<circle cx="388" cy="99" r="3.5" fill="#E8A0BF"/>
<circle cx="422" cy="119" r="3.5" fill="#E8A0BF"/>
<circle cx="458" cy="143" r="3.5" fill="#E8A0BF"/>
<text x="72.5" y="360" text-anchor="middle" font-size="12" fill="#4A4259">1</text>
<text x="107.5" y="360" text-anchor="middle" font-size="12" fill="#4A4259">2</text>
<text x="142.5" y="360" text-anchor="middle" font-size="12" fill="#4A4259">3</text>
<text x="177.5" y="360" text-anchor="middle" font-size="12" fill="#4A4259">4</text>
<text x="212.5" y="360" text-anchor="middle" font-size="12" fill="#4A4259">5</text>
<text x="247.5" y="360" text-anchor="middle" font-size="12" fill="#4A4259">6</text>
<text x="282.5" y="360" text-anchor="middle" font-size="12" fill="#4A4259">7</text>
<text x="317.5" y="360" text-anchor="middle" font-size="12" fill="#4A4259">8</text>
<text x="352.5" y="360" text-anchor="middle" font-size="12" fill="#4A4259">9</text>
<text x="387.5" y="360" text-anchor="middle" font-size="12" fill="#4A4259">10</text>
<text x="422.5" y="360" text-anchor="middle" font-size="12" fill="#4A4259">11</text>
<text x="457.5" y="360" text-anchor="middle" font-size="12" fill="#4A4259">12</text>
<text x="260.0" y="372" text-anchor="middle" font-size="11" fill="#7A7488">気象庁 平年値（統計期間1991〜2020年）にもとづく自作グラフ</text>
</svg>
