<svg xmlns="http://www.w3.org/2000/svg" viewBox="0 0 501 510" font-family="'Hiragino Maru Gothic ProN','Hiragino Sans','Yu Gothic',sans-serif">
<rect width="501" height="510" fill="#FFFFFF"/>
<rect x="0" y="46" width="501" height="442" fill="#E3F6F2"/>
<defs><path id="land_m12_32_35_61" d="M393.8,86.4 L394.6,86.9 L395.3,86.7 L396.1,86.4 L397.7,86.7 L401.5,88.8 L401.8,89.3 L399.6,89.6 L399.1,90.2 L398.5,90.7 L397.9,90.8 L396.8,91.7 L395.4,92.6 L395.1,93.1 L392.4,93.0 L391.0,93.3 L389.8,94.3 L389.3,96.1 L388.5,97.6 L387.6,98.1 L386.7,98.2 L386.5,97.6 L386.6,97.1 L388.5,95.0 L388.9,94.4 L387.9,94.1 L387.2,93.4 L385.4,92.5 L385.1,91.9 L385.5,91.8 L385.9,91.6 L386.4,91.1 L386.6,90.4 L385.2,88.5 L385.9,88.3 L386.8,88.3 L387.7,88.9 L388.7,88.2 L389.1,88.1 L389.8,88.4 L390.5,87.1 L392.2,86.7 L393.0,86.3 L393.8,86.4Z M407.8,478.9 L408.6,479.0 L409.7,479.0 L409.9,478.9 L410.6,477.9 L411.4,477.9 L411.8,478.9 L410.9,479.3 L410.7,479.6 L410.9,479.8 L411.5,480.2 L412.4,480.0 L412.4,480.8 L412.6,481.4 L413.1,481.8 L413.5,481.9 L414.6,481.8 L415.6,481.5 L416.6,481.0 L417.7,480.8 L420.9,481.0 L422.1,482.1 L424.3,482.2 L426.3,482.8 L427.4,482.4 L429.2,482.1 L429.5,482.5 L429.2,484.9 L429.4,485.6 L429.9,485.9 L430.4,485.7 L431.0,485.0 L432.6,484.3 L434.2,484.3 L435.5,482.7 L435.9,482.6 L435.7,483.4 L435.5,485.3 L435.2,486.4 L435.0,487.2 L434.1,487.7 L432.8,487.8 L430.3,487.6 L427.8,487.9 L427.1,488 L418.0,488 L418.0,487.8 L417.9,487.0 L417.6,486.5 L416.1,486.0 L414.8,485.3 L409.4,484.2 L408.2,483.8 L406.1,484.0 L405.4,484.0 L404.9,483.6 L404.5,483.0 L404.4,480.9 L404.6,478.9 L405.1,478.4 L405.3,479.0 L405.8,479.3 L406.3,478.6 L406.3,477.7 L406.5,476.9 L406.9,477.2 L407.2,478.5 L407.8,478.9Z M402.9,420.7 L403.5,422.5 L404.1,423.2 L405.4,423.9 L406.0,424.0 L408.1,425.3 L410.6,425.6 L411.0,426.0 L411.3,427.0 L411.8,427.8 L411.9,428.4 L411.6,429.1 L412.0,431.2 L412.6,433.3 L413.6,434.2 L414.8,434.5 L415.9,434.5 L416.2,434.9 L416.1,436.7 L415.6,437.3 L415.2,437.5 L414.9,437.3 L414.6,436.9 L414.2,436.7 L413.6,436.7 L413.1,436.0 L411.9,435.0 L411.7,434.4 L411.7,433.5 L411.1,432.9 L410.7,431.6 L410.2,431.3 L410.0,430.6 L410.0,430.4 L408.2,430.2 L406.8,430.2 L405.5,429.5 L405.2,427.6 L404.4,427.1 L403.9,426.6 L403.4,425.9 L402.3,424.5 L401.0,423.4 L399.8,422.6 L398.5,422.2 L397.4,422.7 L396.8,422.6 L396.7,422.2 L398.0,421.4 L399.8,420.0 L401.1,419.5 L401.7,419.4 L402.9,420.7Z M353.5,99.8 L352.6,100.2 L352.0,101.4 L351.2,101.6 L350.5,102.0 L350.3,105.8 L351.6,107.2 L350.9,107.4 L350.2,107.9 L349.7,108.5 L349.2,109.9 L347.4,110.7 L346.7,111.2 L345.7,112.5 L345.1,114.4 L344.1,115.2 L342.9,115.4 L343.6,113.8 L344.5,112.6 L343.6,111.7 L343.1,110.4 L342.5,109.4 L343.0,108.2 L342.7,106.4 L342.8,104.5 L343.6,103.6 L344.5,102.9 L345.9,101.1 L347.4,99.9 L349.5,99.3 L350.4,99.8 L350.8,98.7 L351.5,98.4 L352.1,98.7 L353.5,99.8Z M279.5,134.7 L279.5,136.4 L279.2,136.9 L278.8,137.2 L277.6,137.5 L276.7,138.0 L275.8,138.9 L275.5,140.1 L276.1,141.0 L277.4,141.4 L277.7,143.1 L276.7,144.0 L274.0,144.8 L273.8,146.8 L273.8,148.4 L273.8,149.5 L273.6,151.1 L271.4,151.9 L270.1,149.4 L270.0,148.5 L269.6,147.3 L269.6,146.4 L269.1,144.8 L267.0,144.4 L266.3,144.3 L265.2,144.6 L264.9,144.5 L263.6,142.4 L263.8,140.1 L263.1,138.9 L263.0,138.4 L263.0,137.8 L262.4,137.3 L261.7,137.0 L261.4,135.7 L262.2,135.4 L264.2,135.6 L264.8,135.5 L265.3,135.2 L266.9,133.1 L266.9,132.6 L267.0,132.0 L268.8,131.7 L269.5,132.6 L269.4,133.9 L269.5,135.6 L270.5,136.1 L271.0,136.1 L271.4,134.9 L271.7,134.3 L272.1,133.9 L272.3,132.8 L272.0,132.1 L271.5,131.5 L273.5,130.1 L275.5,129.0 L276.7,128.9 L277.9,129.2 L279.0,129.6 L279.6,129.9 L279.9,130.4 L279.2,131.7 L279.0,132.4 L279.5,134.7Z M257.6,137.6 L258.1,138.5 L258.7,140.4 L259.6,142.5 L259.2,143.4 L259.5,144.5 L259.2,145.7 L257.4,147.1 L255.3,147.2 L253.2,146.5 L250.1,145.2 L249.9,144.5 L249.5,144.1 L248.7,141.9 L248.7,139.2 L250.2,138.9 L253.5,137.6 L254.3,137.8 L255.1,138.5 L256.0,138.5 L257.3,137.6 L257.6,137.6Z M172.3,406.6 L173.4,407.1 L174.5,406.6 L175.1,406.8 L175.7,407.1 L175.9,408.1 L175.3,409.3 L174.6,410.6 L174.0,411.9 L173.4,413.4 L172.4,414.3 L171.5,414.9 L169.5,413.7 L168.4,413.5 L168.0,413.0 L167.7,411.3 L167.2,410.8 L166.5,410.5 L165.8,411.0 L164.9,411.9 L164.5,411.0 L163.7,410.8 L163.5,410.3 L163.5,409.6 L168.2,405.5 L169.5,404.6 L172.4,403.5 L172.9,403.7 L172.5,404.3 L172.5,404.6 L172.9,404.9 L172.8,405.4 L172.4,405.8 L172.3,406.6Z M246.1,388.0 L246.6,389.1 L247.9,393.5 L248.0,394.5 L247.8,395.5 L247.5,396.2 L246.2,398.4 L246.4,400.3 L246.9,401.4 L246.9,402.7 L246.7,404.3 L245.9,414.0 L245.5,415.7 L245.3,417.2 L244.4,417.6 L243.3,417.2 L241.9,416.3 L241.2,416.4 L240.6,416.7 L240.0,416.4 L239.5,415.9 L239.1,419.3 L238.5,420.6 L237.5,421.5 L236.6,421.5 L235.7,421.2 L234.9,421.2 L234.3,420.6 L233.8,419.5 L233.0,418.1 L232.3,416.5 L232.2,415.0 L232.0,411.8 L232.3,411.1 L232.6,410.4 L232.7,409.0 L232.6,407.7 L232.9,407.3 L233.3,407.7 L233.7,407.6 L233.6,406.9 L233.7,405.7 L233.1,404.7 L232.1,404.4 L232.0,403.4 L232.2,402.4 L232.7,401.7 L232.9,400.8 L232.9,398.0 L232.2,397.0 L231.9,395.5 L231.5,394.5 L230.9,393.5 L230.1,392.7 L229.7,391.9 L229.6,389.9 L229.8,388.2 L230.1,387.5 L230.3,387.6 L231.0,388.4 L231.6,388.6 L232.8,388.8 L234.0,388.5 L235.5,387.8 L236.8,386.9 L238.9,384.1 L240.1,383.6 L240.7,382.9 L241.0,381.9 L241.5,381.6 L242.1,382.6 L242.9,382.7 L244.1,383.4 L244.6,384.2 L245.0,385.1 L245.4,385.5 L245.9,385.7 L245.9,385.9 L245.6,386.1 L245.2,387.2 L245.4,387.4 L246.1,388.0Z M244.3,355.3 L244.0,357.8 L244.3,358.5 L244.7,359.0 L244.9,359.6 L245.2,366.3 L245.1,366.8 L243.8,369.5 L243.4,370.3 L243.4,373.6 L243.1,374.5 L242.6,375.3 L241.8,378.2 L241.0,379.5 L238.9,377.9 L237.7,377.2 L237.1,376.5 L236.7,376.0 L236.9,375.3 L237.5,374.6 L237.6,374.1 L236.3,373.5 L235.7,373.1 L235.7,372.3 L236.1,371.2 L235.9,370.3 L235.2,370.3 L234.6,370.2 L234.5,369.7 L234.9,369.1 L235.5,368.3 L235.5,367.4 L234.8,367.0 L234.2,366.3 L233.9,365.3 L234.4,364.6 L235.2,364.2 L234.6,363.2 L234.2,363.1 L233.9,362.9 L234.2,362.4 L234.8,361.7 L235.6,359.7 L236.8,358.7 L238.8,358.0 L239.4,357.8 L239.9,357.0 L240.4,356.5 L241.1,356.6 L241.8,356.9 L242.2,357.2 L242.4,356.9 L242.7,356.0 L242.6,355.2 L242.6,353.0 L243.0,351.7 L243.6,351.6 L244.1,352.3 L244.1,352.9 L244.3,354.4 L244.3,355.3Z M313.7,433.3 L312.9,435.2 L312.5,435.9 L309.8,440.7 L309.5,441.8 L309.3,442.9 L309.0,444.0 L308.6,445.0 L308.3,446.2 L308.3,447.6 L308.5,448.3 L308.8,448.8 L309.3,449.2 L309.8,449.8 L309.1,450.4 L309.8,451.6 L310.4,452.4 L310.5,453.1 L310.5,453.8 L309.2,455.1 L308.8,455.8 L308.4,456.7 L308.3,457.7 L308.5,458.5 L308.4,459.3 L307.2,459.2 L305.9,458.7 L304.6,458.9 L302.7,458.0 L302.1,457.8 L301.5,457.4 L299.9,454.5 L298.7,453.2 L297.4,452.2 L296.0,452.2 L294.7,452.3 L293.5,451.7 L291.1,449.7 L288.5,448.1 L287.4,447.0 L286.9,446.3 L286.3,445.9 L284.8,445.4 L283.5,444.3 L282.9,444.2 L281.6,444.4 L281.0,444.3 L280.3,443.9 L279.0,442.6 L278.2,440.8 L278.0,440.1 L278.5,438.0 L279.2,436.1 L279.8,435.6 L280.6,435.2 L281.0,434.6 L281.4,433.9 L282.7,435.9 L283.3,436.4 L283.9,436.3 L284.9,435.6 L285.0,434.8 L286.2,433.8 L287.7,433.7 L288.4,433.9 L288.7,434.8 L289.3,435.1 L290.0,435.2 L292.1,437.0 L292.7,437.3 L293.4,437.3 L295.0,436.6 L296.3,436.3 L299.0,436.7 L300.5,436.3 L301.5,436.2 L303.0,435.6 L304.1,434.4 L304.7,434.2 L305.4,434.1 L306.9,434.2 L308.5,434.4 L309.1,434.1 L309.7,433.4 L310.3,433.1 L311.0,433.3 L312.8,432.1 L313.6,432.0 L314.4,432.5 L313.7,433.3Z M101.1,88.2 L101.2,89.6 L101.1,90.0 L100.8,90.6 L100.0,91.5 L97.7,92.9 L93.6,96.1 L91.1,97.7 L90.8,98.5 L90.6,99.5 L92.1,99.7 L92.6,100.1 L92.3,100.6 L90.1,102.5 L89.5,104.2 L91.1,104.1 L92.5,103.8 L95.2,102.7 L97.8,102.0 L99.0,101.9 L101.4,102.6 L102.0,102.6 L103.0,102.3 L104.0,102.2 L111.0,102.4 L112.9,102.1 L114.2,102.5 L115.3,103.6 L116.3,105.6 L116.2,105.9 L115.6,106.9 L114.5,108.0 L113.5,109.6 L113.2,110.5 L113.0,111.4 L112.7,112.3 L110.8,116.3 L108.9,118.6 L108.1,120.2 L107.0,121.5 L106.0,122.3 L104.9,122.8 L101.8,123.4 L101.0,123.8 L99.9,124.5 L98.9,124.8 L100.1,124.8 L101.4,124.4 L103.7,124.2 L106.3,125.6 L106.1,126.7 L105.0,127.6 L102.6,127.7 L100.3,129.6 L99.3,130.2 L98.3,130.5 L96.9,130.4 L94.5,129.9 L93.4,129.4 L94.4,130.3 L95.5,130.7 L101.8,131.8 L102.2,131.7 L104.2,130.6 L106.9,130.5 L112.1,132.6 L113.6,134.3 L115.7,136.6 L116.8,137.5 L117.7,138.3 L118.2,139.5 L119.2,143.6 L120.3,147.6 L121.8,151.8 L122.5,153.0 L123.4,153.9 L127.9,155.8 L128.9,156.4 L130.6,158.3 L132.3,160.3 L133.9,161.8 L135.5,163.0 L134.7,163.6 L134.2,164.6 L134.6,166.0 L135.3,167.3 L136.6,169.4 L137.8,171.6 L137.4,171.3 L136.9,171.1 L136.3,171.2 L135.7,171.1 L134.5,170.3 L133.4,169.5 L131.3,169.8 L130.0,169.7 L129.0,169.7 L131.0,170.2 L133.2,170.2 L138.0,174.0 L139.6,176.3 L140.5,179.3 L139.9,180.6 L138.9,181.5 L137.9,182.5 L137.0,183.6 L139.7,185.3 L140.3,185.2 L140.8,185.0 L141.4,184.4 L142.4,183.0 L142.9,182.6 L144.5,182.4 L145.9,182.5 L147.3,182.8 L148.5,182.7 L151.0,183.3 L152.2,183.8 L155.3,186.2 L156.0,187.5 L156.3,189.2 L156.4,191.0 L155.8,192.7 L155.2,194.3 L154.9,196.2 L154.6,197.0 L154.2,197.5 L152.6,199.1 L151.5,199.7 L151.0,199.4 L150.5,199.5 L150.5,199.9 L151.0,200.7 L151.0,201.6 L150.0,202.3 L149.0,202.6 L147.4,202.3 L145.1,203.6 L146.7,204.3 L147.1,205.0 L146.6,206.3 L145.6,206.9 L144.4,207.1 L143.3,207.2 L142.3,207.5 L141.3,208.1 L142.5,207.8 L143.3,208.0 L143.8,209.1 L144.3,209.4 L146.6,209.9 L148.0,209.9 L150.8,209.6 L152.1,209.6 L152.6,209.8 L152.6,210.7 L152.4,212.9 L152.0,213.4 L148.4,215.2 L147.6,216.5 L147.4,217.3 L145.3,217.1 L144.3,217.9 L142.6,218.5 L141.2,219.1 L139.9,219.8 L138.8,220.0 L134.2,219.2 L131.4,219.2 L127.6,220.0 L126.6,219.9 L125.1,219.1 L123.6,218.6 L121.9,218.4 L120.4,217.8 L121.3,219.0 L119.2,220.3 L118.3,220.5 L117.3,220.5 L115.3,220.8 L113.4,220.7 L113.7,221.6 L114.2,222.3 L113.8,222.7 L113.3,222.7 L109.8,222.2 L109.3,222.3 L108.8,222.8 L107.5,222.5 L106.3,221.6 L104.9,221.0 L103.5,220.7 L102.4,220.8 L97.8,222.2 L96.9,223.7 L96.4,225.7 L95.7,227.5 L94.6,228.9 L93.4,229.1 L92.1,228.1 L89.8,227.1 L89.0,226.4 L88.8,226.3 L88.5,226.6 L87.6,226.9 L86.7,226.9 L85.2,227.2 L82.7,228.1 L81.7,228.6 L79.5,230.3 L79.1,230.7 L78.3,232.3 L77.1,232.6 L76.0,231.6 L74.7,231.2 L73.4,231.6 L72.5,232.1 L72.2,231.7 L72.2,230.8 L73.1,229.7 L75.7,228.8 L78.0,226.6 L79.1,225.3 L79.6,224.6 L80.1,224.1 L80.8,223.9 L81.2,223.1 L84.4,219.8 L84.6,219.0 L84.8,217.7 L85.1,216.4 L87.6,215.5 L88.9,212.8 L89.2,212.6 L92.8,212.1 L95.5,212.1 L98.1,212.7 L99.5,212.7 L100.8,212.5 L101.9,211.8 L103.7,209.1 L104.8,207.9 L105.9,206.9 L107.0,205.7 L108.8,203.4 L107.6,204.2 L106.2,205.4 L105.3,206.1 L102.6,206.8 L101.5,207.6 L99.4,209.2 L99.0,209.4 L96.0,209.0 L93.7,206.8 L92.2,205.9 L91.6,205.8 L91.0,206.1 L89.7,206.4 L88.3,206.3 L89.0,205.3 L90.0,204.8 L87.9,204.4 L87.3,204.1 L86.6,203.4 L85.0,203.3 L84.2,203.5 L82.8,204.4 L80.7,205.4 L78.2,204.0 L77.7,203.4 L77.7,202.3 L77.3,201.4 L76.6,201.0 L77.5,199.9 L78.6,199.1 L81.0,198.3 L84.6,196.4 L86.6,195.6 L88.5,194.3 L89.3,193.5 L89.9,192.3 L90.4,190.9 L91.2,189.8 L90.5,189.5 L90.1,188.7 L90.2,187.8 L90.6,187.0 L90.2,186.1 L89.7,185.1 L89.7,184.3 L89.8,183.4 L88.4,183.5 L86.9,183.7 L85.6,184.3 L84.4,185.1 L83.2,185.3 L83.3,184.6 L83.7,183.9 L85.0,182.7 L86.4,181.8 L86.9,181.0 L87.3,180.2 L87.9,179.5 L89.7,178.3 L93.2,176.9 L93.7,176.8 L95.0,176.9 L96.4,176.7 L97.5,176.2 L98.7,176.1 L101.3,177.6 L100.5,175.3 L101.6,174.7 L103.3,176.8 L103.9,177.0 L105.2,176.7 L104.7,176.4 L104.1,176.4 L103.4,176.0 L102.7,175.4 L101.6,173.3 L101.7,172.0 L102.4,170.7 L103.2,169.5 L102.6,169.3 L102.0,168.8 L101.9,167.7 L102.1,166.6 L103.5,165.7 L103.9,164.3 L104.1,162.7 L103.9,162.0 L102.5,162.1 L101.8,162.4 L101.1,162.9 L100.5,162.8 L98.7,161.1 L97.7,159.8 L95.9,157.1 L95.6,155.4 L97.1,151.9 L99.3,149.6 L102.0,148.8 L101.5,148.6 L97.4,148.6 L96.1,148.9 L94.9,149.8 L94.2,150.1 L93.5,150.2 L92.8,150.7 L92.2,151.3 L91.5,151.7 L90.1,151.6 L89.5,151.8 L89.0,151.4 L88.6,150.8 L88.1,150.6 L87.5,150.8 L86.3,151.6 L85.1,152.1 L83.6,151.6 L81.7,150.6 L81.3,151.0 L80.9,151.9 L80.6,153.3 L79.3,152.1 L78.1,150.4 L77.7,149.4 L77.7,148.2 L78.3,147.8 L79.0,148.2 L80.0,145.5 L82.1,141.9 L82.8,140.8 L83.3,139.5 L83.2,138.6 L82.8,137.8 L80.9,136.1 L80.9,134.7 L81.1,133.1 L81.6,132.2 L81.8,132.0 L84.4,132.0 L83.4,131.6 L81.4,130.1 L81.4,129.6 L81.9,128.3 L81.7,128.4 L81.3,129.1 L80.5,130.5 L80.0,130.9 L78.6,131.2 L78.3,131.9 L78.1,132.1 L77.4,132.2 L77.2,132.9 L77.0,132.9 L76.8,132.2 L76.8,131.0 L77.1,129.9 L77.6,129.0 L79.7,127.0 L78.7,127.6 L76.4,129.5 L75.3,130.7 L75.0,131.1 L74.9,131.4 L74.9,131.8 L75.4,133.9 L75.2,134.9 L73.3,141.4 L72.9,142.0 L72.6,142.4 L72.3,142.4 L71.3,142.3 L70.9,141.8 L70.9,141.3 L71.1,140.5 L71.9,137.4 L72.2,136.5 L72.7,135.7 L73.9,134.4 L73.9,134.3 L73.1,134.5 L72.8,134.5 L72.5,134.2 L72.7,130.1 L73.3,128.7 L73.5,126.7 L74.1,125.0 L74.7,123.8 L75.2,122.2 L75.9,121.5 L76.1,120.5 L76.9,119.3 L77.5,118.1 L77.2,118.2 L73.2,121.4 L72.2,122.0 L70.8,121.8 L69.8,121.4 L69.0,120.7 L68.6,119.3 L67.6,119.2 L66.7,119.0 L66.7,118.8 L67.9,118.0 L69.6,117.7 L71.3,116.5 L69.8,115.7 L70.0,115.4 L71.3,114.7 L72.9,112.3 L73.2,110.0 L72.4,109.0 L72.2,108.3 L70.6,107.6 L70.3,106.6 L70.5,106.0 L71.0,105.5 L71.8,105.1 L73.0,104.7 L71.9,104.3 L71.5,103.8 L71.2,103.1 L71.2,102.6 L71.7,100.8 L72.1,100.0 L72.7,99.0 L75.7,99.1 L76.0,98.6 L76.3,98.6 L77.8,99.0 L77.6,98.6 L75.1,96.3 L74.9,95.8 L75.6,94.6 L75.7,94.0 L75.6,93.4 L75.8,92.9 L76.6,92.7 L78.9,92.7 L79.5,92.5 L79.3,91.9 L78.7,91.1 L78.6,90.5 L78.7,89.9 L78.8,88.7 L78.9,88.2 L79.4,87.4 L79.9,87.1 L80.5,87.0 L81.8,87.3 L82.3,87.6 L82.9,88.3 L83.3,88.3 L84.9,87.5 L85.4,87.3 L86.1,88.3 L88.9,87.5 L92.6,87.2 L94.8,86.7 L97.2,86.5 L99.4,86.0 L101.8,86.2 L101.9,86.5 L101.7,87.0 L101.1,88.2Z M54.8,147.0 L55.7,147.2 L56.5,146.6 L57.5,144.9 L58.1,144.8 L58.9,144.9 L60.3,144.7 L62.8,143.9 L64.0,143.9 L65.6,144.3 L66.8,144.3 L67.8,145.5 L68.4,147.5 L69.7,149.4 L71.5,151.1 L71.5,152.1 L70.9,152.7 L69.6,153.4 L69.6,154.1 L70.5,153.7 L71.2,153.6 L73.0,153.7 L73.6,154.5 L74.1,155.6 L74.3,156.5 L74.1,157.5 L73.6,157.2 L73.2,156.3 L72.6,155.9 L72.0,155.7 L72.3,156.9 L72.2,158.5 L72.4,158.7 L73.3,158.7 L72.7,160.4 L71.6,160.8 L70.2,161.0 L69.9,161.6 L69.7,162.3 L69.0,163.5 L68.0,164.1 L66.9,164.0 L65.8,163.5 L66.3,164.1 L66.5,164.7 L65.6,164.9 L64.8,164.8 L64.3,165.2 L64.3,166.0 L64.6,167.0 L65.2,167.7 L65.6,169.3 L66.0,171.1 L66.6,172.2 L66.8,173.5 L66.7,174.2 L66.8,175.4 L66.5,175.8 L66.7,176.9 L67.4,179.2 L67.7,180.5 L67.9,183.2 L67.4,184.3 L66.8,185.3 L66.3,186.5 L66.0,187.7 L65.8,189.8 L64.3,192.2 L63.7,192.8 L63.0,193.1 L64.6,194.8 L63.3,195.6 L61.9,195.8 L60.3,195.4 L59.4,195.4 L58.5,196.0 L58.1,196.3 L57.8,196.1 L57.3,194.8 L56.8,196.2 L55.9,196.6 L54.4,196.5 L51.9,196.9 L50.9,197.3 L50.5,198.0 L50.2,198.7 L49.8,199.1 L49.3,199.3 L47.3,199.9 L47.0,200.1 L46.0,201.3 L44.8,202.0 L43.9,202.2 L43.0,201.5 L42.6,201.1 L42.2,200.9 L40.8,200.9 L41.3,201.1 L41.5,201.6 L41.7,202.5 L41.5,203.4 L40.9,203.9 L40.1,204.0 L38.8,204.9 L37.1,205.2 L36.2,206.1 L30.8,207.5 L30.4,207.5 L29.7,207.2 L28.9,207.0 L28.0,207.1 L25.7,207.9 L24.6,207.8 L26.0,205.7 L28.0,204.7 L28.2,204.4 L27.5,204.3 L23.9,205.0 L22.6,205.6 L21.4,205.8 L22.0,204.9 L23.6,203.6 L24.5,203.0 L25.0,202.7 L25.6,202.0 L27.3,201.1 L21.8,202.9 L20.3,202.7 L20.0,202.2 L18.9,202.4 L18.4,201.2 L20.1,199.4 L21.1,198.7 L22.2,198.2 L23.4,197.6 L23.8,196.9 L23.3,196.7 L19.9,196.9 L18.3,196.7 L18.4,196.1 L18.7,195.5 L20.4,194.4 L21.2,194.2 L22.0,194.3 L22.8,194.6 L23.5,195.0 L25.3,194.7 L24.6,194.0 L24.4,192.6 L23.8,192.1 L24.6,191.5 L25.5,191.1 L26.9,189.7 L27.5,189.5 L30.4,189.2 L33.5,188.4 L36.6,187.4 L35.0,186.9 L34.2,186.2 L33.0,187.6 L32.1,188.2 L29.6,188.5 L28.9,188.3 L27.7,187.9 L27.4,188.1 L27.1,188.4 L25.4,189.1 L23.7,189.3 L25.7,188.0 L28.3,185.7 L28.8,185.0 L29.6,183.8 L29.4,183.2 L28.9,182.9 L30.7,180.3 L31.4,179.9 L32.6,179.8 L33.4,179.4 L33.8,179.4 L34.2,179.2 L34.9,178.5 L33.7,178.0 L32.5,177.7 L28.8,178.0 L28.3,178.0 L27.8,177.7 L27.5,177.4 L27.3,176.5 L27.0,176.3 L26.2,176.3 L25.3,176.6 L24.7,176.6 L24.2,176.2 L25.1,175.3 L23.9,175.1 L22.7,175.3 L21.7,175.0 L21.7,174.4 L22.1,173.9 L21.5,173.3 L21.4,172.7 L22.0,172.3 L22.7,172.5 L24.1,172.0 L25.9,171.7 L24.4,171.2 L23.8,170.8 L23.7,170.2 L23.9,169.6 L25.7,168.7 L27.5,168.3 L27.4,167.7 L27.5,167.0 L25.6,166.9 L23.7,167.3 L23.9,166.1 L24.4,164.9 L24.5,164.2 L24.4,163.4 L23.5,163.7 L23.4,162.6 L23.0,161.8 L21.7,162.4 L21.7,161.3 L22.1,160.6 L22.8,160.3 L23.5,160.4 L24.7,160.4 L26.0,159.9 L27.7,159.8 L30.5,159.9 L32.5,161.4 L33.0,161.2 L33.7,160.2 L34.1,160.1 L37.0,160.5 L38.8,161.1 L39.3,160.9 L39.0,159.8 L38.4,159.1 L39.2,158.1 L40.1,157.5 L40.8,157.2 L42.2,156.8 L42.9,156.4 L43.3,155.1 L44.0,154.1 L40.3,154.6 L36.8,153.4 L37.4,152.6 L38.1,152.1 L39.4,151.7 L39.5,151.2 L40.1,150.9 L41.2,149.9 L40.8,148.6 L41.0,147.7 L41.8,147.0 L42.0,146.2 L42.4,145.5 L43.9,145.3 L45.4,144.7 L46.0,144.7 L47.7,144.6 L48.3,144.8 L48.2,143.8 L49.3,143.6 L49.7,143.9 L49.9,144.6 L50.4,145.1 L50.5,145.9 L50.2,146.6 L49.7,147.1 L50.2,147.6 L49.4,148.5 L50.2,148.1 L51.4,147.2 L51.4,146.5 L51.2,145.5 L50.8,144.7 L51.0,143.8 L51.7,143.2 L53.4,142.9 L52.7,141.9 L53.4,141.8 L54.1,142.0 L55.1,142.8 L56.2,143.5 L57.3,144.0 L56.2,145.0 L54.9,145.7 L54.4,146.4 L54.8,147.0Z M299.3,470.5 L298.6,470.8 L298.0,470.3 L297.8,470.0 L298.8,469.7 L299.2,469.9 L299.4,470.4 L299.3,470.5Z M295.1,391.0 L294.5,391.2 L294.3,391.0 L294.1,390.7 L294.3,390.0 L295.3,390.4 L295.3,390.8 L295.1,391.0Z M273.6,458.1 L273.0,458.3 L272.3,457.7 L272.3,456.9 L272.4,456.7 L273.3,457.0 L273.6,457.8 L273.6,458.1Z M208.5,173.3 L207.0,173.9 L206.6,173.8 L206.7,173.6 L208.1,173.2 L208.5,173.3Z M203.9,174.2 L201.7,174.5 L200.9,174.3 L200.8,174.1 L201.4,174.0 L203.3,173.9 L203.9,174.1 L203.9,174.2Z M194.6,176.8 L192.5,178.0 L192.3,177.8 L193.7,176.7 L194.6,176.8Z M197.1,175.4 L196.0,175.6 L195.5,175.3 L198.1,174.7 L199.7,174.5 L200.0,174.6 L197.1,175.4Z M325.9,352.1 L328.0,352.5 L329.6,352.3 L330.9,352.6 L331.8,353.1 L332.0,353.4 L330.9,353.4 L329.6,353.2 L328.2,353.8 L326.9,353.5 L326.4,353.1 L326.1,352.7 L325.9,352.1Z M332.1,349.9 L331.3,350.0 L326.2,349.9 L324.8,349.6 L323.1,348.6 L322.8,348.4 L324.4,348.1 L326.0,348.4 L326.4,349.0 L330.6,349.6 L332.1,349.9Z M327.4,347.4 L325.6,347.4 L324.1,347.1 L323.3,346.6 L323.4,346.2 L323.6,345.4 L325.3,345.5 L328.0,346.0 L328.6,346.7 L328.4,346.9 L327.4,347.4Z M107.9,241.6 L107.5,242.7 L106.5,242.3 L106.4,242.0 L107.6,241.4 L107.8,241.4 L107.9,241.6Z M113.5,246.1 L113.6,246.9 L113.1,247.1 L112.7,246.8 L111.9,246.8 L111.1,247.0 L111.2,245.5 L112.8,245.7 L113.5,246.1Z M346.0,79.5 L345.5,79.7 L345.2,79.6 L345.5,78.8 L345.8,78.5 L346.5,78.2 L346.8,78.2 L346.0,79.5Z M348.0,72.0 L347.7,72.6 L347.5,71.9 L347.6,71.7 L347.8,71.1 L348.3,70.7 L349.2,70.9 L349.2,71.1 L348.4,71.6 L348.0,72.0Z M500.6,297.5 L501,297.7 L501,298.2 L500.6,298.1 L497.1,297.4 L495.5,296.6 L495.1,295.8 L494.9,294.7 L495.8,295.8 L496.4,296.4 L500.6,297.5Z M397.3,82.9 L396.3,83.8 L395.8,83.4 L395.5,83.0 L394.3,84.9 L392.9,85.3 L392.1,84.9 L392.2,84.2 L391.4,82.3 L390.3,81.8 L388.6,81.7 L387.4,81.0 L392.0,80.4 L392.5,79.6 L393.4,78.6 L394.1,78.5 L394.7,78.7 L394.9,79.5 L395.0,79.7 L397.1,80.1 L397.9,81.4 L398.2,82.8 L397.3,82.9Z M402.0,87.6 L401.1,87.8 L398.9,86.6 L399.4,85.8 L400.0,85.5 L401.9,86.0 L402.2,87.2 L402.0,87.6Z M453.2,472.2 L452.4,472.6 L452.1,472.5 L451.8,471.7 L452.2,469.8 L451.8,468.6 L451.8,468.1 L452.4,467.4 L452.9,466.3 L454.0,465.1 L457.0,463.8 L457.6,463.6 L457.6,464.7 L456.6,467.4 L455.8,468.8 L456.0,469.9 L454.6,470.2 L453.2,472.2Z M445.6,480.1 L445.2,481.0 L444.8,480.2 L445.0,479.3 L444.4,477.8 L445.4,475.7 L445.4,474.6 L446.2,474.1 L446.0,475.9 L445.4,477.3 L446.0,478.5 L446.3,479.9 L445.6,480.1Z M453.4,461.6 L453.2,461.9 L452.6,461.1 L452.6,460.7 L453.2,460.2 L453.4,460.1 L453.5,460.4 L453.5,461.1 L453.4,461.6Z M443.9,454.7 L442.7,454.9 L442.9,453.6 L442.4,452.5 L443.3,453.1 L443.8,453.8 L444.1,454.0 L444.0,454.4 L443.9,454.7Z M443.1,458.6 L442.7,458.7 L443.1,457.8 L444.3,456.7 L446.1,455.7 L446.7,455.6 L447.6,456.2 L445.8,457.2 L445.4,457.8 L444.0,457.9 L443.1,458.6Z M427.1,454.6 L426.1,455.2 L425.4,454.3 L425.0,452.8 L426.9,450.7 L427.3,450.9 L427.6,451.4 L427.5,453.3 L427.1,454.6Z M424.1,452.8 L423.2,454.1 L422.4,454.0 L422.1,453.4 L422.5,452.2 L423.6,451.5 L424.0,451.7 L424.0,452.6 L424.1,452.8Z M426.4,464.3 L425.8,465.2 L425.1,464.9 L425.4,464.6 L425.6,464.1 L425.6,463.5 L425.4,463.1 L425.5,462.9 L426.2,463.6 L426.4,464.3Z M425.2,459.5 L425.0,459.8 L424.2,458.7 L423.8,458.1 L424.2,457.6 L425.5,458.8 L425.2,459.5Z M441.6,440.2 L443.0,440.8 L443.4,440.7 L444.1,440.9 L444.3,441.9 L443.4,442.1 L441.9,443.0 L441.2,442.8 L440.5,442.0 L439.2,441.9 L438.9,441.7 L439.5,440.7 L440.7,440.2 L441.6,440.2Z M432.6,445.0 L432.1,445.1 L432.2,444.4 L433.2,443.2 L434.7,443.1 L436.0,442.6 L436.3,442.5 L435.6,443.5 L434.6,444.3 L432.6,445.0Z M430.7,457.6 L429.7,457.7 L429.3,457.6 L429.9,457.3 L430.4,457.0 L430.6,456.6 L431.6,455.9 L432.3,455.1 L433.0,455.7 L432.1,456.0 L430.7,457.6Z M437.5,461.0 L436.6,461.5 L436.0,462.3 L435.3,461.7 L435.3,460.9 L436.1,461.1 L436.6,460.7 L436.5,460.1 L437.1,460.4 L437.5,461.0Z M413.6,444.2 L412.8,445.0 L412.7,443.8 L413.2,442.5 L413.8,442.4 L414.1,443.0 L413.6,444.2Z M414.5,448.1 L413.8,448.7 L414.0,447.5 L413.7,446.9 L414.0,446.3 L414.4,445.9 L414.6,446.4 L415.0,447.1 L414.5,448.1Z M415.6,458.0 L415.6,459.0 L415.5,459.4 L413.2,459.9 L413.4,458.7 L413.6,458.3 L414.3,458.9 L414.6,458.6 L414.7,458.3 L415.6,458.0Z M420.2,445.6 L420.2,447.4 L419.9,447.4 L419.7,447.1 L419.7,446.4 L419.8,445.3 L420.2,445.6Z M420.8,441.1 L420.5,442.2 L419.6,440.9 L418.6,440.0 L418.2,439.2 L417.6,438.7 L417.5,437.7 L418.2,437.2 L418.5,437.2 L419.2,438.5 L420.4,438.6 L420.3,439.4 L420.7,440.5 L420.8,441.1Z M423.8,443.8 L423.4,444.9 L422.7,444.7 L421.5,443.6 L421.1,443.0 L420.8,442.5 L421.3,442.4 L421.9,443.0 L423.4,443.3 L423.8,443.8Z M417.7,455.3 L417.5,455.4 L417.2,454.7 L417.1,454.0 L417.3,453.6 L417.7,453.6 L418.2,454.9 L417.7,455.3Z M433.3,433.3 L432.2,434.3 L431.0,432.9 L430.8,432.4 L431.7,431.9 L432.2,431.0 L431.8,429.9 L430.6,428.4 L430.5,427.2 L432.4,426.8 L433.5,427.7 L434.1,427.8 L433.9,428.7 L434.0,429.0 L434.0,431.9 L433.5,432.2 L433.4,433.0 L433.3,433.3Z M436.9,414.4 L436.7,415.4 L438.3,417.1 L438.8,418.1 L439.0,419.2 L438.9,419.5 L438.3,418.9 L437.8,418.7 L438.0,419.5 L438.5,420.1 L437.6,420.5 L436.7,420.4 L434.1,419.6 L433.5,418.6 L435.0,417.2 L435.4,416.6 L434.3,416.7 L433.1,418.4 L431.2,417.6 L430.6,417.0 L430.5,416.6 L431.2,415.1 L432.6,415.2 L433.3,414.8 L434.1,414.4 L434.1,413.6 L436.2,413.5 L436.9,414.4Z M407.0,418.1 L406.5,418.6 L405.7,418.4 L404.9,416.5 L407.0,418.1Z M408.2,417.3 L407.7,417.5 L408.2,416.2 L409.2,415.4 L408.8,416.6 L408.2,417.3Z M417.2,423.2 L416.0,423.7 L415.7,423.6 L415.9,423.1 L416.0,422.8 L414.8,421.9 L414.9,420.7 L415.0,420.3 L415.9,421.0 L416.1,422.1 L417.2,423.2Z M428.7,395.7 L427.4,396.2 L426.0,394.8 L427.4,394.2 L428.0,394.6 L428.4,395.1 L428.7,395.7Z M425.9,403.3 L425.4,403.9 L425.1,404.8 L424.9,406.3 L424.3,406.3 L423.9,406.0 L423.7,405.5 L423.7,404.8 L423.4,404.8 L423.2,405.6 L423.0,405.9 L422.3,406.0 L421.6,405.5 L421.6,404.5 L421.5,403.4 L421.5,403.0 L423.5,402.9 L424.1,403.7 L424.8,403.3 L425.1,402.7 L426.0,402.4 L425.9,403.3Z M418.3,392.5 L416.9,393.1 L415.4,392.0 L415.4,391.3 L416.2,389.9 L416.6,389.5 L417.7,389.6 L418.3,390.6 L418.5,391.0 L418.3,391.8 L418.3,392.5Z M431.9,400.7 L429.3,401.2 L428.5,400.7 L429.3,399.7 L430.8,399.0 L431.3,399.0 L432.0,400.0 L431.9,400.7Z M86.3,161.8 L84.0,164.0 L83.1,163.6 L82.3,163.8 L82.1,163.8 L82.5,163.0 L83.1,161.2 L84.0,160.5 L85.2,158.6 L86.2,158.1 L86.5,158.2 L86.7,158.3 L87.2,160.4 L86.5,161.2 L86.3,161.8Z M61.3,121.1 L60.7,121.1 L60.6,120.9 L61.8,119.8 L62.5,119.6 L62.7,119.7 L62.2,120.3 L61.3,121.1Z M78.4,140.4 L77.0,140.4 L76.5,140.2 L75.9,139.8 L75.2,137.5 L75.4,136.7 L75.7,136.3 L76.0,135.9 L76.8,135.8 L77.5,136.3 L77.8,136.7 L78.4,138.2 L78.5,139.6 L78.4,140.4Z M70.8,125.1 L66.2,126.1 L64.7,126.0 L64.5,125.5 L64.9,125.2 L66.1,124.9 L66.7,122.7 L64.7,121.6 L64.6,121.3 L64.8,120.8 L65.0,120.6 L66.2,120.1 L66.7,120.0 L67.1,120.0 L67.9,120.6 L68.9,121.9 L70.1,122.1 L71.0,122.7 L70.8,125.1Z M66.8,132.2 L67.2,134.4 L67.6,135.7 L67.6,136.2 L67.2,136.8 L65.4,137.7 L64.8,137.7 L64.8,137.5 L65.2,136.6 L64.8,135.6 L65.0,134.9 L64.8,134.7 L64.5,134.8 L63.1,136.0 L62.7,136.1 L62.6,135.9 L62.9,134.9 L63.0,134.3 L63.2,133.8 L63.6,133.5 L64.0,133.2 L64.3,133.1 L64.7,133.4 L65.8,132.6 L66.8,132.2Z M68.6,134.2 L68.4,134.3 L67.8,134.3 L67.6,134.0 L67.4,133.6 L67.4,132.8 L67.8,132.3 L69.3,131.4 L68.6,131.1 L68.6,130.9 L68.9,130.2 L70.5,129.2 L71.0,129.0 L71.4,129.0 L70.6,130.9 L68.6,134.2Z M124.6,54.3 L124.4,54.5 L123.2,52.7 L124.1,50.8 L125.1,50.8 L125.2,51.3 L125.1,51.8 L124.6,51.9 L124.6,52.0 L124.7,52.9 L124.7,54.0 L124.6,54.3Z M121.6,53.9 L121.9,55.1 L122.4,54.7 L123.3,55.9 L123.8,55.9 L124.5,55.4 L124.4,56.5 L123.6,59.5 L123.4,60.0 L123.2,60.9 L123.1,61.1 L122.9,62.9 L122.3,63.5 L121.9,64.9 L121.7,65.1 L121.1,64.5 L121.7,62.3 L122.0,61.1 L121.8,60.4 L121.5,59.8 L120.5,59.8 L119.7,60.1 L119.5,59.7 L119.4,59.2 L119.3,59.1 L118.2,59.1 L117.8,59.0 L117.6,58.5 L117.6,58.2 L118.6,57.9 L119.5,58.0 L120.9,57.3 L120.0,55.0 L118.9,54.8 L118.6,54.6 L118.8,54.2 L119.5,54.0 L120.4,52.8 L121.0,52.6 L121.7,52.7 L121.6,53.9Z M127.7,49.2 L127.7,49.4 L127.1,50.8 L127.1,51.4 L126.2,51.3 L126.0,51.1 L125.8,50.3 L126.0,49.4 L126.1,49.2 L126.4,49.1 L126.7,49.3 L127.1,48.9 L127.4,48.9 L127.7,49.2Z M100.5,83.5 L99.9,83.7 L99.2,83.7 L98.2,82.7 L97.8,82.0 L97.9,81.5 L98.3,81.4 L99.3,81.6 L99.8,82.4 L99.9,83.0 L100.0,83.2 L100.6,83.4 L100.5,83.5Z M88.8,176.5 L89.2,176.9 L90.4,176.8 L90.0,177.5 L88.7,178.3 L87.8,179.1 L86.8,179.7 L86.2,179.0 L85.6,179.0 L84.7,177.6 L84.5,175.4 L85.7,174.9 L87.4,174.9 L88.8,176.5Z M107.5,76.1 L106.2,76.1 L106.9,75.1 L107.7,74.8 L109.1,74.9 L108.9,75.4 L107.5,76.1Z M103.2,84.4 L103.1,84.4 L102.7,84.1 L102.0,83.0 L103.0,82.8 L103.6,82.9 L103.4,83.4 L103.2,84.4Z M101.7,79.5 L101.6,79.9 L102.4,79.9 L103.7,80.3 L104.4,80.3 L105.1,80.8 L104.7,81.6 L104.4,81.8 L103.9,81.9 L102.4,81.0 L100.5,81.4 L100.1,81.3 L99.8,81.0 L99.7,80.8 L99.7,80.2 L99.6,80.0 L98.9,80.6 L98.6,80.5 L98.4,80.2 L98.4,79.7 L98.4,78.9 L98.8,77.8 L99.5,77.6 L100.6,77.7 L101.8,78.3 L102.2,78.7 L102.1,79.0 L101.7,79.5Z M105.5,76.8 L104.5,77.2 L104.1,76.9 L104.0,75.8 L102.8,75.3 L102.2,75.0 L101.8,74.5 L101.9,74.3 L102.7,74.1 L104.0,75.1 L104.5,75.9 L105.4,76.1 L105.6,76.3 L105.5,76.8Z M66.0,90.8 L64.5,93.8 L64.0,93.9 L63.5,94.6 L61.9,95.4 L63.3,95.4 L63.7,95.7 L63.7,96.3 L63.4,96.6 L61.7,98.0 L60.5,98.5 L59.2,99.9 L58.5,99.9 L57.9,100.9 L57.4,101.2 L57.1,101.2 L56.7,101.0 L55.9,100.2 L57.4,99.3 L57.5,98.8 L58.5,98.3 L58.4,98.1 L56.8,97.4 L56.2,96.9 L56.3,96.7 L57.0,96.1 L56.7,96.1 L56.4,95.8 L56.0,95.7 L55.9,95.4 L55.8,94.6 L55.9,93.9 L56.4,93.6 L56.6,93.2 L56.7,93.1 L57.4,93.3 L58.2,93.9 L59.0,93.7 L60.0,93.8 L60.0,93.6 L59.3,92.2 L59.4,91.9 L59.8,91.5 L62.1,90.5 L64.9,88.7 L65.6,88.5 L65.8,88.7 L66.0,89.6 L66.0,90.8Z M65.1,114.6 L64.7,114.8 L64.3,114.8 L63.9,114.5 L63.3,113.7 L64.6,113.1 L65.1,113.5 L65.3,113.8 L65.3,114.3 L65.1,114.6Z M66.6,105.4 L66.6,106.2 L66.4,107.0 L66.6,108.0 L66.7,108.7 L67.2,108.9 L67.5,109.2 L69.6,109.5 L71.6,109.4 L72.0,109.7 L72.0,110.1 L71.7,110.6 L70.6,111.5 L69.2,112.9 L68.8,113.2 L68.4,113.2 L68.1,113.1 L67.9,110.6 L66.4,110.9 L65.2,110.9 L64.6,110.6 L64.1,110.0 L63.2,108.4 L60.6,107.8 L59.8,107.0 L59.6,106.5 L59.7,106.2 L60.2,105.6 L60.9,105.8 L61.4,105.7 L61.6,105.4 L61.6,105.1 L61.3,104.6 L61.2,104.4 L63.9,103.7 L64.2,102.7 L64.8,102.6 L65.4,102.9 L66.4,104.0 L66.6,105.4Z M54.5,102.4 L55.8,103.3 L54.8,104.9 L53.2,104.9 L51.0,103.8 L51.0,103.5 L51.2,103.2 L51.5,102.9 L51.9,102.8 L52.4,103.0 L53.2,102.7 L53.8,102.8 L54.5,102.4Z M54.0,112.0 L53.6,112.1 L52.9,112.0 L52.5,111.8 L52.1,110.7 L52.1,110.1 L52.2,108.9 L52.2,107.5 L53.5,107.5 L53.8,107.7 L54.1,111.9 L54.0,112.0Z M23.3,166.5 L23.3,167.0 L22.4,166.4 L22.0,165.7 L19.7,165.4 L20.7,164.7 L21.2,164.9 L22.8,164.9 L23.2,165.2 L23.3,166.5Z M52.1,114.6 L51.1,114.8 L50.8,114.7 L50.7,114.5 L50.9,113.9 L51.7,113.7 L52.2,114.0 L52.3,114.3 L52.1,114.6Z M386.7,57.3 L385.9,57.4 L384.7,56.5 L384.5,56.2 L385.0,56.0 L384.7,55.3 L384.8,55.0 L385.7,55.5 L386.2,56.2 L385.7,56.3 L386.5,57.0 L386.7,57.3Z M360.2,59.8 L360.2,60.2 L359.8,60.1 L359.5,60.2 L359.2,60.7 L358.7,60.5 L358.5,59.9 L358.9,58.9 L359.8,58.8 L360.2,59.8Z M363.9,57.0 L364.2,57.0 L364.4,56.9 L365.0,57.0 L365.9,57.7 L366.1,58.0 L366.7,58.2 L367.0,58.6 L366.2,59.7 L365.8,59.7 L365.4,59.6 L364.8,59.7 L364.5,59.9 L364.4,60.4 L364.4,61.4 L361.7,61.6 L361.1,61.3 L360.3,59.0 L360.4,58.5 L361.0,58.2 L361.5,58.1 L361.6,59.4 L362.3,59.3 L362.5,58.4 L362.5,57.9 L362.4,57.6 L361.9,57.4 L361.6,57.0 L362.0,56.4 L362.7,56.1 L363.4,56.9 L363.9,57.0Z M354.4,98.3 L354.2,99.4 L353.6,99.3 L353.1,98.5 L354.2,97.3 L355.8,97.4 L356.4,97.6 L354.4,98.3Z M324.5,126.1 L323.9,126.9 L323.4,126.9 L323.1,125.7 L323.0,122.8 L323.2,121.3 L325.7,116.1 L326.8,115.7 L328.3,112.5 L328.8,111.0 L329.4,109.7 L329.8,108.6 L330.2,108.1 L330.9,108.4 L331.2,108.6 L330.5,109.2 L330.5,110.1 L330.5,110.5 L328.6,114.3 L328.0,116.7 L327.4,117.3 L324.5,126.1Z M308.1,147.6 L307.7,147.9 L305.8,147.4 L303.5,146.3 L303.9,144.0 L304.5,143.0 L308.6,145.5 L308.7,146.5 L308.1,147.6Z M292.4,158.5 L292.7,159.6 L292.4,160.2 L291.1,159.3 L289.9,159.3 L289.1,160.8 L288.5,160.8 L286.5,159.5 L286.2,158.8 L286.2,158.3 L286.4,156.3 L286.4,155.7 L287.0,155.1 L287.1,154.1 L288.2,153.1 L289.2,153.1 L289.5,154.0 L290.0,154.5 L291.6,155.2 L291.9,155.5 L292.0,155.9 L291.2,156.7 L291.0,157.1 L291.2,157.8 L292.4,158.5Z M279.3,148.6 L278.8,148.8 L277.1,148.6 L275.1,149.8 L274.4,149.5 L274.6,148.7 L274.8,148.4 L275.5,148.1 L275.9,147.6 L276.1,146.9 L276.5,147.3 L277.8,147.5 L278.3,147.7 L278.8,148.0 L279.3,148.6Z M280.6,137.9 L279.5,138.6 L279.3,138.5 L278.9,137.6 L279.5,136.9 L279.8,136.4 L280.1,136.5 L280.4,137.0 L280.6,137.9Z M265.7,149.8 L267.8,150.9 L269.1,150.8 L270.0,151.3 L270.3,151.9 L270.3,153.4 L269.4,153.9 L268.3,153.7 L266.8,154.3 L262.0,151.9 L262.1,149.8 L262.3,149.0 L264.6,148.8 L265.7,149.8Z M255.8,150.6 L255.0,150.8 L254.1,150.4 L252.7,149.0 L252.5,148.6 L253.3,148.9 L254.2,149.6 L255.0,149.8 L256.0,150.4 L255.8,150.6Z M251.0,149.9 L249.8,150.2 L249.2,149.8 L248.1,149.6 L247.7,147.0 L247.8,146.8 L248.3,147.0 L250.2,148.2 L250.9,149.6 L251.0,149.9Z M258.6,152.2 L258.1,152.3 L257.4,151.0 L257.3,150.5 L258.1,149.6 L258.7,148.6 L260.0,147.1 L260.8,145.3 L261.1,145.3 L260.7,146.9 L259.0,151.4 L258.6,152.2Z M257.2,134.7 L257.0,135.0 L256.2,134.7 L256.2,133.6 L256.4,132.6 L256.1,131.7 L256.5,131.1 L257.5,132.5 L257.8,133.1 L257.4,133.8 L257.2,134.7Z M264.8,157.9 L263.1,157.9 L262.4,157.2 L261.8,157.1 L262.1,156.2 L262.6,155.9 L264.3,156.5 L264.8,157.5 L264.8,157.9Z M262.2,109.7 L261.8,110.1 L260.2,109.5 L260.9,108.8 L262.6,108.4 L263.6,108.5 L262.5,109.3 L262.2,109.7Z M231.0,151.6 L230.7,152.0 L230.9,149.6 L232.1,147.0 L232.6,147.1 L232.1,147.7 L231.9,148.2 L231.7,149.2 L231.8,149.7 L234.7,149.8 L234.3,150.3 L231.5,150.6 L231.0,151.6Z M123.1,302.6 L122.7,304.1 L121.9,302.7 L120.9,301.5 L120.7,300.4 L120.7,300.1 L121.9,301.0 L123.1,302.6Z M124.4,221.3 L123.4,221.9 L123.1,222.5 L122.9,222.8 L122.3,223.0 L121.6,223.0 L119.3,221.6 L118.7,221.7 L119.3,221.0 L120.7,220.5 L121.6,219.9 L123.5,220.5 L124.4,221.3Z M192.1,180.8 L191.0,182.0 L190.3,181.7 L190.1,181.4 L190.4,180.4 L192.1,178.9 L192.1,180.8Z M254.7,354.4 L255.1,355.1 L255.2,355.5 L254.9,355.9 L255.0,356.9 L254.1,356.1 L252.6,356.5 L251.7,356.4 L251.5,355.7 L251.7,355.2 L253.1,355.1 L253.5,354.9 L254.3,355.0 L254.7,354.4Z M233.0,418.9 L232.3,420.5 L231.6,419.3 L231.6,418.3 L231.7,418.0 L232.5,418.5 L233.0,418.9Z M230.8,385.3 L230.4,386.1 L229.8,386.0 L230.1,385.5 L230.5,384.3 L231.1,383.9 L231.4,384.3 L231.1,384.9 L230.8,385.3Z M185.3,405.7 L185.1,405.9 L181.6,403.9 L180.5,403.7 L180.2,403.4 L180.2,402.4 L180.3,401.9 L182.7,401.7 L184.6,402.4 L185.6,404.4 L185.7,404.7 L185.3,405.7Z M154.6,425.6 L154.4,425.8 L153.6,425.6 L152.5,425.6 L152.5,424.9 L152.6,424.4 L152.8,423.9 L153.5,424.9 L154.6,425.1 L154.6,425.6Z M152.9,421.4 L152.5,422.4 L150.8,422.1 L150.4,421.6 L150.8,420.5 L151.3,420.3 L151.3,419.5 L151.8,418.6 L154.3,417.9 L154.9,418.5 L155.0,419.3 L153.5,421.1 L152.9,421.4Z M302.2,473.5 L301.8,474.1 L300.7,474.0 L299.8,473.2 L299.8,471.4 L300.9,471.7 L301.9,472.9 L302.2,473.5Z M309.8,333.9 L309.9,334.5 L308.5,333.4 L308.0,332.7 L307.9,332.3 L309.8,333.9Z M305.0,318.4 L303.6,318.8 L302.9,318.1 L302.7,317.6 L301.6,317.4 L300.9,316.7 L300.7,316.3 L301.7,315.5 L302.3,314.2 L302.9,315.0 L303.7,316.5 L304.2,316.9 L305.0,318.4Z M305.2,322.1 L305.5,322.8 L304.4,322.2 L303.5,321.9 L303.3,321.4 L303.4,321.0 L303.6,320.6 L304.3,320.6 L304.4,321.0 L305.2,322.1Z M309.3,329.3 L309.0,329.7 L308.2,328.9 L307.6,328.3 L307.1,327.6 L306.1,326.7 L305.8,325.7 L304.4,323.7 L304.2,323.1 L304.9,324.0 L305.5,324.5 L306.0,324.6 L307.2,325.9 L308.4,327.6 L309.9,329.0 L309.6,329.1 L309.3,329.3Z M309.3,336.3 L309.4,336.6 L309.4,336.7 L308.8,336.5 L308.7,336.6 L305.9,332.9 L305.6,332.1 L306.6,333.0 L309.3,336.3Z M311.4,335.4 L312.1,336.7 L311.4,336.4 L310.6,335.7 L310.2,334.8 L311.4,335.4Z M301.3,323.8 L301.2,324.4 L300.5,323.6 L300.2,322.1 L299.3,319.7 L299.2,319.0 L299.6,318.3 L299.6,317.7 L299.0,315.5 L299.5,315.2 L299.8,315.2 L300.0,316.6 L300.2,317.5 L301.1,318.5 L300.9,320.2 L301.1,322.7 L301.2,323.2 L301.3,323.8Z M336.8,355.9 L338.3,357.1 L333.8,355.6 L334.3,355.4 L334.8,355.4 L336.8,355.9Z M371.0,430.5 L371.1,432.4 L371.9,432.8 L373.0,434.6 L372.9,435.5 L372.7,435.8 L370.9,435.0 L370.5,435.3 L370.0,435.2 L369.6,434.2 L369.7,433.9 L369.4,433.3 L369.2,433.0 L368.5,433.8 L368.0,433.9 L368.0,433.2 L368.7,431.3 L369.0,430.9 L369.5,431.6 L369.9,431.4 L370.2,430.3 L370.3,429.2 L370.4,428.9 L371.0,430.5Z M374.1,440.3 L375.3,442.0 L374.3,441.6 L373.3,442.7 L372.0,441.4 L371.2,440.0 L371.1,439.5 L371.9,438.2 L372.6,439.5 L373.6,439.7 L374.1,440.3Z M371.8,426.7 L371.4,426.8 L371.0,426.7 L370.6,426.8 L370.3,427.1 L370.4,425.7 L370.7,424.1 L371.2,423.1 L371.9,422.6 L372.2,423.4 L372.1,426.1 L371.8,426.7Z M372.6,431.4 L372.1,431.6 L371.4,430.0 L371.1,428.8 L371.4,428.8 L371.7,428.9 L372.0,429.3 L372.0,429.8 L372.1,430.2 L372.4,430.8 L372.6,431.4Z M364.9,412.6 L365.1,413.6 L363.7,413.0 L362.7,412.2 L361.8,410.0 L360.0,407.7 L360.0,407.0 L360.7,406.4 L362.2,406.1 L362.8,406.4 L363.2,406.8 L363.3,407.3 L362.4,408.2 L362.3,408.6 L362.9,409.5 L362.9,409.8 L363.2,411.4 L363.5,412.0 L364.3,412.5 L364.9,412.6Z M404.4,438.3 L404.0,438.7 L403.4,438.7 L403.1,438.5 L402.9,438.2 L403.1,438.0 L403.4,437.3 L403.6,437.2 L404.0,437.2 L404.2,437.5 L404.4,438.3Z M398.7,467.8 L398.6,468.5 L397.4,468.0 L397.1,467.2 L397.1,465.6 L397.4,464.7 L397.6,464.5 L398.1,465.4 L399.2,466.8 L398.7,467.8Z M181.4,203.4 L182.5,204.4 L182.8,204.7 L182.9,205.0 L181.4,205.3 L179.9,204.2 L179.0,204.5 L178.6,203.9 L178.6,203.6 L179.6,203.3 L181.4,203.4Z M234.2,152.9 L233.7,153.3 L232.7,153.3 L232.1,152.9 L232.3,152.4 L232.8,152.1 L233.3,152.1 L234.0,152.3 L234.2,152.9Z M213.1,172.1 L212.1,172.2 L212.4,171.7 L213.3,171.4 L213.9,171.4 L213.1,172.1Z M388.7,56.7 L390.2,57.1 L390.8,57.0 L391.5,57.8 L390.3,58.4 L390.2,59.1 L390.7,59.6 L390.9,60.2 L389.7,60.2 L389.1,59.7 L388.9,59.0 L388.4,58.5 L387.6,58.1 L388.0,57.6 L388.2,57.0 L388.7,56.7Z M380.5,54.0 L380.4,54.8 L379.6,54.7 L378.8,54.8 L378.2,54.1 L377.8,52.7 L377.9,52.4 L378.4,52.1 L378.8,52.9 L380.5,54.0Z M384.9,60.6 L383.7,61.2 L383.3,61.1 L383.4,60.1 L384.1,59.6 L385.2,59.6 L384.9,60.6Z M371.0,62.3 L370.9,62.7 L369.9,62.8 L369.6,62.4 L368.7,62.5 L368.5,62.3 L368.9,62.0 L369.6,61.7 L370.5,61.8 L371.0,62.3Z M382.5,61.2 L381.5,61.3 L380.9,60.8 L381.1,60.5 L381.8,60.1 L382.6,60.1 L382.8,60.6 L382.5,61.2Z M194.4,57.8 L194.4,59.8 L193.3,59.6 L192.9,58.9 L192.7,58.4 L192.8,57.2 L192.6,56.0 L192.9,55.4 L193.3,55.3 L193.9,56.4 L194.4,57.8Z M425.5,446.9 L424.4,447.0 L424.4,445.7 L424.8,445.3 L426.1,446.0 L426.1,446.4 L425.5,446.9Z M415.5,451.9 L415.0,452.1 L414.3,451.8 L414.5,450.8 L415.0,450.4 L415.5,450.7 L415.6,451.1 L415.5,451.9Z M341.0,74.4 L342.8,74.6 L343.7,74.4 L344.3,73.8 L345.1,73.6 L345.8,73.7 L346.5,73.3 L347.0,73.1 L347.6,73.3 L348.3,74.4 L346.9,75.0 L346.0,75.1 L345.5,76.9 L344.9,77.8 L344.5,78.1 L342.4,78.9 L341.0,80.0 L339.3,80.8 L338.6,80.6 L337.5,81.4 L335.1,82.4 L333.8,83.7 L331.1,84.9 L329.6,85.9 L325.8,85.9 L322.1,85.7 L320.9,86.2 L322.1,86.3 L323.0,86.8 L323.9,86.6 L326.3,86.8 L327.5,87.1 L329.0,88.6 L327.9,89.2 L325.9,89.6 L326.7,91.9 L327.3,93.4 L326.5,94.3 L326.4,98.4 L325.3,98.5 L324.8,100.2 L325.2,101.1 L325.1,103.1 L325.4,104.3 L325.9,105.5 L325.7,106.7 L323.9,109.5 L324.0,110.8 L324.3,111.6 L324.5,112.8 L323.7,115.2 L323.1,117.3 L322.5,118.9 L321.0,121.0 L320.2,122.5 L318.5,127.2 L317.6,128.2 L316.5,128.9 L315.3,128.2 L314.3,127.8 L312.9,127.9 L310.8,128.4 L307.7,128.1 L304.7,128.2 L303.9,128.7 L304.3,130.4 L303.2,130.7 L302.1,130.2 L301.1,130.8 L300.3,131.4 L298.7,132.9 L298.2,133.8 L298.1,135.6 L298.9,137.2 L299.6,139.0 L297.7,141.3 L296.7,141.3 L293.6,140.7 L288.0,142.1 L283.1,141.0 L283.7,139.8 L283.7,138.9 L284.0,137.6 L284.1,136.2 L284.1,135.3 L283.7,134.3 L282.5,133.0 L279.7,128.7 L278.9,126.8 L278.4,126.1 L278.8,126.0 L281.0,127.0 L281.6,126.9 L282.1,126.5 L281.4,125.1 L280.9,124.5 L280.5,123.5 L281.8,123.3 L282.8,123.3 L283.5,122.2 L283.1,120.5 L282.0,120.0 L281.2,119.7 L279.5,117.0 L277.8,115.6 L274.7,110.1 L273.6,106.4 L272.6,106.8 L272.1,105.1 L271.7,103.6 L271.6,102.4 L270.0,101.8 L269.9,101.0 L269.6,97.5 L267.9,97.0 L266.7,95.0 L266.5,91.2 L265.4,90.5 L264.5,90.7 L264.5,89.8 L264.7,88.9 L264.2,85.4 L264.0,82.3 L263.6,81.3 L263.3,80.2 L263.5,79.2 L263.9,78.7 L265.0,78.5 L266.0,79.4 L266.0,78.9 L265.8,78.2 L263.1,77.6 L262.7,77.6 L261.6,77.2 L261.0,77.1 L259.7,76.9 L258.7,75.0 L257.6,73.4 L257.4,72.7 L257.5,69.8 L257.1,68.4 L257.0,67.0 L256.3,68.2 L256.7,70.0 L255.9,70.8 L254.8,71.2 L254.9,72.3 L255.3,72.5 L255.4,73.6 L255.2,75.2 L253.0,78.9 L252.6,79.3 L252.3,79.8 L251.2,79.5 L249.8,80.5 L248.5,80.7 L248.0,79.5 L246.1,78.0 L245.2,78.1 L246.0,78.8 L246.8,79.8 L246.4,80.5 L245.9,80.9 L245.1,81.1 L242.4,82.4 L243.4,83.3 L242.6,84.3 L241.6,84.4 L241.1,84.9 L240.9,85.5 L238.1,87.3 L233.4,91.9 L231.1,93.2 L229.4,94.5 L227.9,94.5 L226.1,95.6 L221.4,96.6 L218.3,96.2 L216.2,96.6 L215.0,95.8 L214.9,95.3 L214.9,94.9 L215.1,94.6 L214.7,94.4 L213.9,94.4 L213.5,94.8 L213.5,95.6 L213.1,95.8 L211.5,95.3 L211.1,94.9 L211.6,94.0 L212.6,93.2 L212.5,93.0 L212.3,92.5 L211.8,92.5 L210.3,92.6 L209.2,92.4 L205.4,90.6 L204.5,89.7 L201.4,88.1 L200.0,86.5 L199.3,84.6 L199.3,83.0 L199.7,80.4 L200.3,79.8 L203.1,80.7 L205.9,82.2 L206.3,82.1 L207.2,80.9 L208.9,80.0 L208.4,79.7 L205.9,80.8 L204.9,80.2 L203.5,79.0 L203.5,78.3 L204.2,77.7 L204.4,76.8 L204.0,76.0 L204.2,74.9 L205.3,73.7 L207.0,72.6 L208.2,71.4 L209.5,70.7 L209.3,70.5 L207.9,70.9 L206.6,71.7 L205.0,73.0 L203.0,74.0 L201.5,74.4 L200.9,74.7 L199.8,75.0 L198.7,76.5 L197.5,77.2 L195.3,77.2 L194.9,76.2 L195.5,72.3 L196.1,70.4 L196.8,69.1 L198.0,68.9 L198.8,67.9 L199.4,67.9 L200.0,68.3 L202.2,68.8 L203.2,67.5 L204.7,67.3 L207.2,66.1 L207.2,65.9 L205.4,66.1 L204.4,66.2 L202.9,66.5 L202.1,66.3 L201.7,65.3 L202.3,64.5 L204.7,62.5 L205.5,61.6 L206.0,60.8 L206.0,60.2 L206.4,59.0 L208.7,57.0 L210.6,56.1 L211.3,56.9 L210.7,59.4 L210.7,60.4 L212.3,56.8 L212.9,55.9 L213.7,55.3 L215.6,54.9 L216.1,54.3 L213.9,54.5 L208.7,55.9 L206.5,57.1 L205.9,58.1 L204.4,59.5 L203.7,60.4 L203.3,61.8 L202.5,62.6 L201.3,62.8 L199.7,64.6 L199.0,66.0 L197.4,67.1 L196.4,67.9 L196.0,68.2 L195.5,69.1 L195.0,69.1 L194.6,68.6 L194.6,67.6 L194.7,65.8 L195.5,64.6 L195.9,63.4 L195.4,62.2 L195.7,61.5 L196.4,61.5 L197.7,61.9 L199.0,61.8 L201.2,60.9 L200.9,60.4 L199.9,60.3 L198.1,60.4 L196.6,59.5 L195.5,57.8 L194.9,55.4 L195.3,54.8 L199.6,52.4 L200.8,51.3 L200.1,51.2 L198.5,52.5 L196.2,53.3 L194.7,52.2 L193.9,51.0 L193.5,48.4 L193.7,47.1 L193.5,46 L215.9,46 L215.9,46.1 L216.6,46.8 L217.0,46.6 L216.8,46 L501.0,46 L501.0,488 L65.3,488 L68.7,476.4 L69.1,474.6 L71.1,474.1 L72.5,473.9 L73.7,473.3 L75.1,472.2 L76.5,472.7 L75.8,473.4 L75.8,475.3 L76.8,477.5 L78.4,480.0 L81.5,483.2 L83.9,484.5 L87.2,485.3 L91.2,483.9 L93.4,483.8 L94.5,483.2 L95.7,484.1 L97.9,484.4 L100.0,483.9 L101.7,482.6 L102.7,481.1 L102.9,481.8 L102.9,482.6 L103.2,483.1 L103.9,485.1 L104.2,485.8 L105.4,485.7 L106.5,486.1 L108.9,485.9 L111.3,486.2 L113.6,486.6 L114.7,486.4 L117.5,484.9 L119.6,482.8 L121.3,481.8 L122.8,479.6 L124.1,478.2 L126.1,476.6 L131.7,473.4 L132.5,473.3 L134.4,474.1 L136.0,473.8 L137.0,472.7 L138.2,469.9 L140.1,468.2 L142.4,466.5 L145.5,464.9 L147.6,463.5 L150.8,462.2 L159.0,461.4 L163.2,460.6 L166.0,460.8 L168.9,458.4 L170.3,457.7 L176.5,457.5 L179.5,455.8 L190.6,455.8 L192.0,456.3 L193.3,457.3 L195.6,459.5 L196.7,460.0 L198.2,459.5 L201.6,457.4 L205.5,456.3 L207.6,455.0 L208.5,453.2 L210.3,452.5 L211.3,453.9 L215.3,455.4 L217.8,455.0 L218.8,454.5 L218.5,452.4 L221.0,453.0 L223.0,454.0 L225.1,456.0 L226.5,456.4 L229.0,455.5 L234.1,455.1 L236.9,454.0 L239.5,451.4 L240.5,450.7 L246.7,448.2 L247.5,448.4 L248.4,448.7 L248.2,449.7 L247.8,450.4 L248.3,451.7 L249.1,450.9 L248.9,450.4 L248.8,449.7 L250.1,449.6 L251.2,449.7 L252.5,450.5 L252.4,453.4 L254.1,456.3 L253.6,457.7 L254.9,458.6 L256.1,457.5 L256.8,456.0 L259.0,455.2 L261.1,453.0 L262.2,452.8 L262.5,454.6 L263.1,456.1 L262.3,456.7 L261.3,458.4 L259.3,462.6 L257.6,463.9 L256.2,465.5 L255.8,466.7 L255.7,468.0 L256.0,470.4 L257.0,472.9 L258.1,474.4 L259.2,474.9 L261.7,477.2 L261.6,478.6 L262.0,480.3 L262.1,482.3 L263.0,483.9 L261.1,487.4 L260.9,488 L501.0,488 L501,462.2 L500.8,461.9 L498.0,460.6 L493.1,457.4 L491.9,457.0 L488.6,456.6 L485.1,456.3 L484.4,457.4 L484.1,462.1 L483.5,463.3 L483.3,465.7 L482.8,466.4 L482.2,466.9 L481.1,466.1 L480.4,465.8 L478.7,466.8 L475.4,468.1 L474.2,468.3 L470.3,466.6 L468.9,465.5 L468.0,464.2 L467.7,462.2 L467.1,461.0 L467.0,460.2 L466.8,459.2 L466.0,458.8 L465.2,459.5 L464.3,459.5 L463.2,459.1 L460.5,457.3 L458.5,457.2 L457.2,459.3 L456.3,460.0 L455.2,460.2 L455.2,459.6 L456.0,458.2 L452.8,458.5 L451.1,459.5 L449.8,459.4 L448.8,458.9 L448.9,458.3 L449.9,458.1 L450.8,457.6 L454.3,457.2 L455.1,456.9 L456.0,455.4 L457.6,454.1 L457.8,453.5 L456.5,453.5 L451.2,453.9 L447.6,453.7 L447.2,454.3 L446.6,454.4 L446.5,452.7 L447.0,451.8 L447.8,451.9 L449.7,451.2 L449.6,449.8 L448.2,448.8 L447.9,448.2 L446.9,448.1 L446.1,447.4 L446.0,445.6 L445.3,443.7 L444.4,442.8 L444.5,442.3 L446.2,441.7 L446.5,439.0 L446.3,437.4 L445.4,437.2 L443.0,435.9 L442.3,436.1 L441.4,434.6 L440.0,433.6 L439.3,434.0 L438.9,434.5 L438.2,434.2 L437.1,433.4 L436.0,432.9 L435.6,432.3 L436.2,430.7 L437.0,430.7 L437.1,429.5 L436.5,427.4 L436.6,426.4 L437.3,426.1 L438.1,426.3 L438.9,427.5 L439.2,428.7 L439.0,429.9 L439.6,431.0 L439.9,431.3 L440.2,430.1 L440.5,429.9 L441.0,430.4 L442.1,430.7 L444.8,429.9 L445.3,429.3 L443.3,429.4 L442.6,428.8 L441.8,427.5 L441.3,426.4 L441.2,425.8 L440.9,424.9 L441.2,424.5 L442.6,423.8 L443.8,421.9 L443.3,421.4 L442.7,421.1 L442.1,421.3 L441.5,420.7 L441.5,419.8 L441.9,419.0 L442.0,418.0 L440.4,415.6 L440.0,415.0 L440.3,414.2 L441.5,412.9 L442.6,411.2 L442.5,410.7 L441.7,410.4 L437.8,411.1 L436.2,411.8 L433.5,412.1 L433.4,411.1 L433.4,410.3 L434.0,408.8 L434.0,405.2 L434.3,403.2 L435.8,402.6 L437.7,399.6 L440.7,396.2 L443.8,396.3 L445.0,395.3 L446.9,395.3 L447.2,395.9 L447.4,396.6 L449.0,397.6 L451.9,397.4 L452.6,397.0 L453.3,396.5 L452.0,394.8 L452.4,394.3 L453.6,394.3 L454.9,394.7 L454.9,395.1 L454.6,395.6 L454.2,396.5 L454.6,396.7 L458.3,396.1 L462.2,396.6 L463.4,396.4 L466.5,396.4 L467.0,395.8 L466.1,395.1 L465.2,394.8 L464.6,394.4 L464.0,393.9 L465.9,392.3 L467.0,392.0 L472.2,391.0 L476.0,390.5 L476.0,390.1 L475.5,390.1 L470.5,389.2 L469.3,388.6 L467.7,387.1 L467.3,386.6 L466.9,385.9 L467.2,384.3 L467.5,383.0 L468.1,382.2 L470.0,382.1 L476.8,383.4 L481.7,382.7 L487.0,384.6 L492.0,384.2 L493.1,383.3 L494.3,380.6 L501,376.3 L501,296.6 L500.9,296.6 L499.7,296.1 L498.6,296.2 L498.0,295.5 L498.7,295.1 L499.6,295.1 L500.4,294.8 L500.7,294.4 L500.6,293.7 L498.9,293.1 L497.3,293.0 L496.2,292.3 L495.4,291.6 L497.3,291.6 L499.1,292.1 L501,292.3 L501,290.1 L500.2,289.0 L499.9,287.7 L500.1,286.5 L499.8,284.3 L499.0,282.4 L498.7,281.3 L497.8,280.4 L498.7,282.5 L499.0,283.9 L499.5,285.3 L499.4,288.7 L499.1,290.0 L498.0,290.3 L496.6,290.1 L495.2,289.7 L495.5,287.8 L494.8,288.4 L493.7,290.3 L492.8,290.6 L490.7,290.4 L486.8,291.6 L486.6,293.0 L486.0,294.8 L485.4,295.8 L485.2,296.5 L483.6,299.2 L483.4,299.5 L480.3,303.3 L479.9,303.6 L477.8,304.4 L476.6,305.2 L475.7,305.6 L474.2,305.2 L473.5,305.7 L473.2,306.4 L473.2,307.8 L474.0,308.8 L474.7,312.2 L474.4,313.6 L474.2,314.7 L474.1,315.4 L473.6,318.3 L473.3,319.4 L472.7,320.7 L466.9,322.1 L467.3,321.4 L467.2,320.2 L466.9,319.3 L467.5,318.4 L466.2,318.1 L465.6,318.6 L465.1,319.4 L465.5,321.2 L464.9,322.3 L464.7,322.8 L464.6,324.2 L464.3,324.8 L464.2,325.4 L465.1,325.2 L464.7,326.4 L463.0,328.6 L462.4,330.0 L462.5,335.3 L461.7,338.4 L461.7,339.4 L461.4,343.5 L460.3,345.4 L458.6,344.7 L456.5,345.3 L455.4,347.4 L454.8,348.1 L454.2,348.8 L453.8,351.6 L453.7,356.3 L452.9,356.8 L452.2,357.0 L449.1,361.0 L450.9,362.2 L451.7,363.1 L453.0,365.5 L454.8,368.2 L455.2,369.5 L454.9,371.5 L455.6,373.6 L457.3,376.6 L458.9,378.1 L465.8,381.8 L467.0,382.1 L466.7,383.6 L466.3,385.0 L465.9,385.9 L463.9,386.4 L458.4,384.8 L457.0,384.6 L456.0,385.0 L454.2,386.2 L452.1,385.8 L449.3,386.5 L448.5,388.7 L446.6,391.3 L443.3,393.4 L441.0,394.5 L437.6,398.6 L436.0,400.9 L435.3,401.4 L434.6,401.7 L434.8,400.6 L435.2,399.6 L435.1,398.8 L435.1,397.7 L436.3,396.4 L437.3,395.4 L440.5,393.7 L441.3,392.3 L438.8,392.4 L436.4,392.7 L434.8,392.5 L433.5,392.6 L433.0,391.4 L432.7,390.6 L432.4,389.9 L430.6,388.7 L426.5,387.9 L424.6,387.0 L423.7,387.1 L422.1,386.1 L420.9,386.6 L418.5,388.4 L417.2,388.2 L415.8,387.1 L414.9,386.9 L413.9,387.5 L412.2,389.6 L410.4,390.7 L408.9,390.3 L406.8,390.3 L406.6,391.5 L407.0,392.3 L408.1,393.7 L407.6,394.8 L408.0,395.9 L408.7,396.1 L409.9,396.0 L411.9,397.4 L412.8,398.9 L413.4,400.5 L412.2,399.3 L411.3,398.2 L410.1,397.8 L408.5,396.9 L407.5,396.7 L406.4,397.4 L406.3,398.1 L407.5,399.5 L408.6,400.4 L409.1,401.1 L409.5,402.6 L409.3,403.1 L408.9,403.6 L407.6,402.6 L405.7,399.2 L403.0,398.5 L402.5,399.2 L403.1,401.0 L403.4,401.7 L405.8,403.7 L405.6,404.1 L405.3,404.3 L402.6,403.2 L401.9,401.5 L401.7,399.3 L399.2,397.8 L397.0,396.2 L396.4,394.7 L396.9,394.1 L397.2,393.0 L396.0,393.2 L395.2,393.9 L393.9,394.6 L393.9,395.7 L394.1,396.8 L393.6,398.3 L393.2,401.0 L393.5,402.4 L396.3,406.4 L397.2,409.3 L397.9,410.4 L399.3,411.6 L400.8,413.9 L401.4,415.1 L401.9,417.0 L400.6,418.2 L399.9,418.3 L399.5,417.7 L400.1,416.4 L400.0,415.6 L398.1,414.4 L397.2,414.8 L396.3,415.6 L396.8,417.1 L397.4,418.1 L397.7,419.5 L398.9,419.4 L397.3,420.9 L395.9,421.7 L394.5,421.7 L393.5,421.9 L393.2,422.3 L394.0,422.5 L394.6,422.6 L395.6,423.4 L398.4,424.4 L399.7,425.6 L401.0,425.8 L402.3,428.1 L404.6,428.7 L405.9,431.0 L407.6,431.5 L409.1,432.3 L409.6,433.1 L409.8,434.6 L409.9,437.8 L410.2,440.1 L410.2,440.8 L410.1,441.9 L409.7,442.5 L409.2,442.5 L408.1,440.8 L406.5,439.0 L404.7,436.8 L404.2,436.4 L403.8,436.4 L402.9,437.1 L400.3,437.7 L399.1,438.5 L398.7,438.7 L398.5,439.1 L399.1,439.5 L399.8,440.5 L399.8,441.8 L400.4,443.5 L401.1,443.9 L402.1,443.8 L402.6,444.1 L402.8,444.8 L403.3,445.6 L403.7,446.1 L403.7,446.5 L401.0,447.6 L400.4,448.1 L400.0,448.3 L399.3,447.8 L399.2,446.5 L398.3,445.8 L397.5,445.2 L396.4,445.0 L395.6,444.1 L395.0,444.8 L395.5,447.3 L396.4,449.1 L398.1,453.7 L398.8,456.5 L399.0,457.8 L398.6,460.0 L399.4,461.7 L400.0,463.4 L399.3,463.3 L398.8,462.7 L397.9,462.0 L396.2,459.3 L395.6,457.6 L394.9,457.5 L393.7,457.7 L392.3,461.3 L392.3,463.4 L391.6,462.9 L391.0,462.3 L391.1,460.0 L391.0,459.1 L389.4,456.0 L388.6,455.7 L388.3,454.6 L387.7,453.5 L386.9,453.7 L386.3,454.2 L386.1,455.8 L386.0,457.3 L385.5,458.5 L383.8,456.3 L382.0,452.6 L382.0,450.6 L383.3,448.7 L383.1,447.4 L381.9,444.8 L380.1,443.1 L379.1,442.6 L378.7,440.8 L377.7,439.9 L377.0,439.5 L376.8,438.8 L377.0,438.4 L378.9,436.5 L380.0,433.7 L380.5,433.5 L381.6,434.2 L382.9,434.0 L383.9,432.3 L384.8,431.4 L386.2,431.5 L389.5,433.8 L393.1,435.1 L394.9,436.2 L395.9,437.3 L396.4,437.6 L397.2,437.7 L397.2,436.9 L396.9,436.1 L397.6,435.7 L399.5,435.8 L399.9,435.4 L400.2,434.7 L399.8,434.0 L399.2,433.7 L398.5,433.6 L398.1,433.3 L397.4,433.6 L396.2,433.0 L395.7,432.6 L395.3,432.1 L393.4,431.1 L391.6,429.5 L391.1,430.4 L390.4,430.9 L389.3,431.0 L386.4,430.0 L384.5,430.8 L383.5,431.0 L382.8,431.0 L381.8,431.3 L380.8,431.5 L379.8,430.1 L379.4,428.9 L379.1,428.7 L379.1,429.8 L378.8,430.6 L377.5,431.1 L376.7,430.5 L376.1,428.4 L375.3,425.9 L373.9,423.8 L372.8,423.3 L372.7,422.1 L372.8,421.2 L374.2,421.0 L376.2,422.0 L376.7,421.8 L377.1,421.3 L377.0,420.4 L376.7,419.5 L376.2,419.5 L375.8,419.6 L374.5,419.4 L372.9,419.9 L372.1,419.4 L371.9,418.9 L370.5,417.5 L369.3,415.7 L367.4,414.4 L366.2,410.7 L365.1,409.1 L364.0,407.9 L364.0,406.4 L363.6,405.2 L362.3,402.3 L358.1,399.4 L357.2,398.2 L356.7,397.1 L356.3,396.1 L356.7,396.1 L357.1,396.3 L357.6,396.6 L357.9,396.1 L357.6,395.0 L356.6,392.4 L356.5,391.7 L357.0,389.6 L357.9,387.1 L357.8,384.2 L358.1,382.0 L357.8,380.5 L357.6,378.8 L358.3,376.4 L358.8,375.9 L359.2,375.1 L359.2,372.6 L358.0,371.4 L356.5,371.2 L354.8,369.9 L354.0,368.0 L351.4,364.8 L348.5,362.6 L348.3,362.2 L348.5,361.8 L348.6,361.5 L348.0,361.4 L347.6,361.7 L347.1,361.6 L345.0,360.0 L343.1,358.2 L339.3,355.4 L336.5,354.8 L332.8,352.5 L330.4,351.7 L331.3,351.6 L332.4,351.6 L338.1,354.5 L337.5,353.7 L336.5,353.0 L336.0,352.6 L333.6,350.0 L331.4,348.4 L328.8,345.3 L325.3,344.1 L323.0,342.8 L321.6,343.0 L320.0,343.4 L319.0,343.4 L318.3,343.2 L317.9,342.3 L317.9,341.7 L317.8,340.8 L316.5,339.5 L314.6,338.2 L312.8,336.6 L309.2,332.1 L308.5,330.6 L309.2,330.4 L309.8,330.4 L310.4,330.1 L311.3,330.1 L312.5,330.4 L311.5,329.4 L310.2,328.5 L306.9,324.8 L305.9,323.0 L305.8,321.1 L306.1,318.5 L305.5,316.6 L302.9,314.2 L302.0,312.9 L300.1,312.2 L299.3,312.3 L298.8,313.2 L298.4,315.3 L296.8,318.0 L296.2,319.2 L295.4,320.8 L294.6,320.9 L294.2,320.8 L292.8,318.1 L291.5,316.2 L291.4,315.2 L291.2,314.1 L290.3,309.8 L291.0,309.2 L291.6,308.9 L292.6,308.0 L293.3,307.3 L291.5,304.9 L290.7,304.9 L289.7,305.9 L286.7,304.9 L286.2,305.3 L285.7,306.1 L284.7,307.2 L283.3,307.6 L281.7,308.7 L280.0,309.5 L278.7,310.2 L277.9,310.0 L279.1,308.7 L278.6,308.7 L277.0,309.6 L276.1,310.4 L275.8,311.7 L275.6,313.9 L276.3,314.5 L277.5,317.3 L279.0,318.5 L278.7,319.7 L278.3,320.6 L277.4,321.4 L276.6,320.8 L276.2,320.9 L275.8,322.7 L276.5,327.7 L277.5,331.2 L278.5,332.7 L280.9,335.1 L283.3,336.3 L287.7,340.3 L290.2,341.6 L290.8,342.3 L292.3,345.4 L293.5,348.9 L294.9,354.5 L295.9,357.3 L297.8,360.4 L301.9,364.8 L305.6,368.1 L309.1,370.1 L311.7,370.5 L318.1,370.0 L319.2,370.2 L320.4,370.8 L320.7,372.2 L320.2,373.1 L318.9,374.1 L317.5,375.4 L317.4,377.3 L318.6,378.6 L324.8,382.1 L331.1,384.9 L333.0,386.4 L335.3,388.7 L340.7,391.9 L341.7,393.4 L345.0,396.7 L346.5,399.2 L346.8,401.2 L346.1,403.2 L345.7,404.6 L345.2,406.0 L343.8,405.5 L342.1,404.1 L339.7,398.2 L335.3,397.6 L334.4,397.2 L332.8,396.2 L332.7,395.6 L332.3,394.7 L331.9,394.5 L330.2,394.3 L329.1,395.2 L327.7,397.5 L326.1,400.7 L324.5,405.4 L324.4,407.3 L325.3,409.1 L327.9,410.2 L329.9,411.8 L331.2,413.5 L331.3,417.7 L331.9,420.0 L331.0,421.4 L329.3,421.0 L327.1,421.9 L325.5,423.4 L324.9,424.8 L325.0,428.6 L324.7,430.0 L321.7,432.8 L320.1,435.5 L319.8,436.7 L319.2,438.0 L315.4,438.0 L314.5,436.4 L314.4,434.0 L315.1,432.5 L316.5,431.8 L317.4,428.8 L317.1,426.6 L317.7,425.6 L318.2,424.9 L319.3,424.5 L320.7,424.1 L320.9,421.0 L319.7,419.6 L319.3,417.6 L318.8,414.0 L316.8,409.3 L315.8,405.2 L315.0,403.2 L313.8,402.1 L311.6,402.1 L310.5,401.8 L306.6,398.9 L306.3,398.5 L306.3,397.7 L307.0,396.6 L306.5,395.0 L306.1,393.5 L305.3,392.3 L304.5,391.6 L302.7,392.0 L302.1,392.4 L301.0,392.2 L300.1,392.8 L299.6,392.8 L301.0,390.6 L300.6,390.1 L299.3,389.2 L297.4,389.0 L296.9,388.9 L296.6,389.5 L296.3,389.2 L296.3,388.2 L294.2,383.8 L292.7,382.0 L292.0,381.7 L290.7,382.1 L288.5,381.3 L287.2,381.1 L286.5,381.3 L285.4,381.9 L284.8,381.5 L284.7,380.9 L282.7,379.1 L280.2,378.0 L275.3,372.2 L273.9,370.0 L270.8,367.6 L268.9,364.1 L267.3,362.8 L265.0,361.8 L264.5,361.9 L263.8,362.3 L263.2,362.4 L262.8,361.9 L263.2,361.5 L263.7,361.2 L263.5,359.9 L260.9,356.4 L259.4,355.3 L259.0,354.6 L258.6,353.7 L258.3,353.1 L257.6,352.7 L257.0,352.8 L256.1,352.6 L256.1,350.9 L256.3,349.6 L256.2,348.5 L255.3,345.7 L253.9,343.3 L253.1,337.5 L252.4,335.9 L250.8,334.7 L247.2,333.3 L242.2,329.6 L241.1,329.5 L238.1,328.1 L236.2,327.8 L233.8,329.1 L230.8,332.7 L228.4,336.4 L227.6,337.1 L224.5,338.4 L221.7,339.0 L219.1,340.2 L218.2,340.8 L214.6,344.5 L212.9,345.6 L212.6,346.3 L212.2,347.6 L211.2,348.6 L210.4,349.1 L208.2,349.6 L206.1,350.8 L205.1,350.3 L202.6,350.3 L201.0,349.0 L198.0,348.1 L197.0,346.1 L195.6,346.0 L194.7,346.1 L194.2,345.8 L194.1,345.1 L194.1,344.4 L193.1,344.7 L192.4,344.7 L191.9,345.0 L191.6,345.3 L191.2,345.1 L191.0,345.2 L191.0,345.6 L190.1,345.7 L189.2,345.4 L186.7,344.4 L186.3,344.2 L184.6,343.8 L183.9,343.4 L183.3,342.4 L182.9,342.1 L182.6,341.9 L181.0,342.4 L180.4,343.2 L179.6,344.2 L173.6,348.7 L172.5,350.6 L171.2,353.4 L171.1,354.8 L171.7,359.0 L172.9,361.2 L173.0,361.7 L173.4,362.7 L173.9,363.2 L174.1,364.1 L173.1,364.6 L172.5,364.6 L172.3,366.2 L172.6,366.7 L173.2,367.1 L173.3,367.6 L173.4,369.9 L172.3,371.4 L170.7,373.0 L162.8,378.1 L160.9,380.5 L160.2,381.1 L154.3,382.7 L150.2,384.3 L148.3,384.9 L145.8,387.8 L144.6,389.0 L145.6,389.3 L146.6,390.7 L146.3,391.3 L144.7,392.3 L144.0,392.6 L143.6,392.4 L143.3,392.6 L140.6,397.6 L138.3,401.2 L137.0,402.8 L135.6,405.1 L132.8,411.2 L132.8,412.9 L134.2,418.9 L135.0,420.5 L136.1,421.8 L138.3,423.0 L138.8,424.1 L138.1,425.2 L135.9,427.0 L132.2,429.6 L130.6,431.6 L130.2,433.5 L129.1,434.4 L128.7,437.1 L128.1,438.9 L127.9,439.5 L127.2,440.9 L127.1,441.9 L128.3,443.3 L127.7,443.9 L127.2,444.1 L125.8,444.3 L121.4,444.5 L117.8,447.4 L116.1,450.0 L114.4,454.9 L112.5,457.8 L111.6,458.3 L110.3,457.1 L108.6,456.9 L107.0,457.3 L106.1,458.3 L104.8,458.8 L103.5,458.4 L100.7,458.1 L99.4,458.2 L97.5,459.0 L95.8,458.4 L93.0,458.1 L86.8,458.8 L86.1,459.1 L85.3,460.3 L83.3,462.4 L80.4,462.5 L77.7,463.8 L77.0,464.6 L75.9,467.0 L75.5,468.7 L75.3,468.7 L75.0,468.3 L74.6,468.4 L74.4,469.7 L73.4,470.3 L72.5,470.6 L70.4,469.5 L68.7,467.9 L67.8,467.8 L66.3,465.3 L65.7,463.8 L65.2,462.0 L65.3,461.4 L65.2,460.9 L63.9,460.2 L63.6,458.6 L64.5,456.6 L65.3,455.7 L65.8,455.5 L64.6,455.6 L63.7,456.9 L62.6,454.8 L58.2,450.7 L58.5,449.8 L58.4,449.3 L57.7,450.3 L57.2,450.6 L54.9,450.5 L52.3,450.9 L51.3,451.1 L47.4,453.9 L46.2,453.9 L43.9,452.7 L40.0,452.3 L38.7,451.9 L37.1,452.7 L35.8,452.7 L34.9,453.7 L34.2,453.5 L35.0,451.2 L36.2,446.7 L36.2,443.9 L36.5,441.5 L36.1,439.2 L35.5,437.7 L36.4,433.9 L36.3,431.9 L35.5,429.4 L37.9,429.8 L37.2,428.8 L36.4,428.2 L35.7,428.3 L35.1,428.3 L33.0,429.3 L32.0,429.6 L31.7,429.4 L31.8,427.8 L31.3,425.8 L32.1,425.3 L33.1,425.2 L33.9,424.3 L34.4,423.4 L34.1,421.6 L34.8,420.0 L36.5,418.7 L35.6,418.9 L34.6,419.7 L33.1,422.8 L32.6,424.4 L31.3,424.9 L30.1,425.1 L29.5,425.0 L28.7,424.6 L28.7,423.4 L28.7,422.5 L29.2,420.7 L29.4,418.1 L30.1,415.8 L30.1,415.2 L29.9,414.2 L30.5,413.4 L31.3,412.8 L32.4,410.8 L34.1,406.1 L36.0,401.0 L35.8,400.4 L35.4,399.9 L35.6,398.6 L36.7,392.7 L37.2,391.9 L37.7,390.2 L37.8,387.4 L38.0,385.5 L38.0,384.5 L37.8,383.4 L37.1,381.2 L36.3,376.5 L36.3,374.9 L36.9,374.1 L35.9,374.0 L35.4,373.0 L35.5,371.9 L36.7,370.0 L35.8,370.2 L35.5,369.9 L35.4,367.2 L36.7,365.4 L37.6,364.3 L37.2,364.1 L36.2,364.2 L36.3,363.3 L36.7,362.9 L37.2,362.0 L36.7,361.6 L36.3,361.0 L36.3,359.4 L36.4,358.8 L36.3,358.1 L34.3,359.0 L33.7,358.9 L33.7,357.7 L34.8,356.0 L35.0,355.4 L33.7,355.2 L32.7,354.3 L32.1,353.5 L31.5,352.4 L31.4,351.4 L32.1,349.0 L33.0,348.4 L33.8,347.9 L35.6,346.3 L37.9,346.6 L39.4,346.3 L40.7,345.4 L41.5,345.3 L42.7,344.5 L42.6,343.6 L42.2,342.8 L42.6,342.1 L43.9,341.3 L45.4,340.2 L47.2,340.0 L48.9,339.0 L50.1,339.6 L51.1,339.4 L52.3,340.2 L53.9,341.9 L56.2,342.6 L58.0,342.0 L61.2,341.9 L62.8,342.2 L65.7,341.7 L67.3,341.9 L70.0,341.0 L72.1,342.1 L76.0,342.6 L78.4,343.5 L85.1,344.9 L87.4,344.9 L90.8,344.1 L92.3,343.5 L93.6,343.9 L95.5,343.2 L96.4,343.3 L97.6,344.3 L101.9,345.7 L103.0,344.5 L103.8,344.3 L106.8,345.0 L109.9,346.4 L111.5,346.5 L113.9,346.1 L115.7,345.2 L116.1,345.1 L117.9,344.6 L119.6,342.4 L121.2,334.7 L122.3,325.5 L123.2,323.7 L124.3,323.3 L123.4,322.0 L122.8,322.7 L122.6,323.3 L122.3,323.7 L123.0,315.3 L123.4,312.2 L124.2,308.9 L125.8,310.2 L127.1,311.5 L127.8,312.7 L128.6,316.4 L129.3,317.2 L130.3,318.0 L129.9,317.1 L129.2,316.5 L128.2,311.5 L127.5,310.0 L126.5,308.9 L123.2,306.3 L122.9,305.9 L122.7,304.9 L123.8,304.9 L124.8,305.4 L124.7,304.9 L124.4,304.3 L123.9,302.3 L123.6,297.5 L123.6,296.7 L123.5,295.7 L122.4,295.5 L121.6,295.4 L120.7,295.0 L116.2,292.2 L114.6,289.4 L113.1,287.2 L112.7,286.3 L112.7,285.4 L113.5,283.4 L112.8,282.1 L112.1,281.9 L111.5,281.2 L112.1,280.2 L112.5,279.5 L113.4,279.3 L114.6,279.6 L115.8,280.2 L116.7,280.3 L114.0,278.7 L109.7,279.3 L108.8,279.1 L108.0,278.7 L107.7,277.5 L108.3,277.0 L108.9,276.0 L108.3,275.3 L107.4,275.0 L106.2,275.1 L105.0,275.3 L104.7,274.9 L105.4,273.8 L104.8,273.4 L104.0,273.6 L102.8,273.8 L101.6,273.4 L100.6,272.2 L99.9,272.2 L99.4,272.4 L98.6,271.9 L97.9,271.8 L97.3,271.9 L96.6,271.2 L92.1,269.8 L90.2,269.6 L88.4,270.2 L87.5,270.0 L86.7,269.1 L86.1,267.5 L83.3,266.3 L83.8,265.5 L85.2,265.4 L86.7,264.8 L87.3,264.1 L86.1,263.3 L85.2,263.1 L84.8,262.8 L84.4,262.1 L85.0,261.7 L85.3,261.9 L86.4,262.0 L88.3,261.8 L87.6,261.1 L86.9,260.9 L86.5,260.8 L85.0,260.7 L84.4,260.9 L82.8,260.8 L82.5,260.0 L82.3,259.3 L82.8,257.8 L85.0,256.5 L90.3,255.0 L92.6,255.2 L94.2,254.9 L96.2,254.0 L97.0,253.2 L99.7,252.7 L102.3,253.6 L104.7,256.8 L105.9,257.9 L108.7,256.0 L112.8,256.0 L113.7,257.1 L114.1,256.2 L114.8,255.1 L115.4,255.6 L115.7,256.3 L120.1,256.1 L120.8,255.9 L119.7,255.1 L118.7,253.3 L118.5,246.6 L117.3,244.7 L115.9,241.7 L115.2,239.9 L115.2,239.3 L115.4,238.4 L117.1,238.4 L118.4,238.6 L121.0,238.0 L122.2,238.4 L122.1,239.8 L122.5,241.6 L122.9,242.4 L123.6,243.4 L125.6,243.3 L127.8,243.9 L130.6,244.0 L134.6,245.0 L136.4,244.4 L138.1,243.2 L141.2,242.4 L141.5,242.0 L139.7,242.1 L138.0,241.4 L137.7,240.5 L137.9,239.8 L138.6,238.0 L143.5,235.3 L147.0,234.5 L150.7,233.0 L152.5,231.5 L153.7,229.5 L154.1,229.1 L154.6,228.7 L154.2,228.0 L154.5,220.4 L154.8,219.1 L155.5,218.0 L156.6,217.1 L158.3,216.2 L164.3,214.9 L165.2,214.3 L170.2,211.5 L173.2,210.0 L174.6,209.6 L175.5,209.3 L177.3,209.2 L178.8,209.7 L180.7,210.0 L182.1,209.3 L183.3,209.9 L184.6,209.4 L183.6,209.2 L182.1,208.5 L180.0,209.0 L178.5,208.4 L177.3,208.3 L176.5,207.7 L175.7,206.8 L176.3,206.2 L176.9,206.0 L179.1,205.9 L180.7,206.2 L183.6,208.3 L184.3,208.2 L185.1,208.0 L184.7,207.4 L184.0,207.2 L182.9,206.6 L182.1,205.9 L184.1,205.6 L183.8,205.2 L183.5,204.6 L181.4,202.2 L181.8,201.6 L182.3,200.2 L183.0,199.1 L183.5,198.8 L184.4,198.0 L186.3,195.7 L187.5,193.7 L188.4,191.5 L189.7,185.2 L190.1,184.2 L190.7,183.0 L191.5,183.2 L192.1,183.6 L194.1,182.7 L197.5,180.4 L198.5,178.4 L199.4,177.4 L203.3,175.6 L205.5,175.1 L208.8,174.9 L211.2,174.6 L214.0,174.5 L215.1,175.6 L215.8,176.4 L216.8,176.9 L218.4,177.2 L217.9,176.4 L216.7,175.6 L217.0,173.9 L217.3,172.5 L218.5,170.9 L219.4,170.4 L223.3,170.1 L227.6,170.3 L229.4,172.8 L228.7,174.0 L229.8,174.6 L230.3,174.4 L230.7,173.3 L230.9,172.1 L231.3,171.7 L232.6,172.6 L233.1,173.3 L233.1,175.3 L233.6,172.5 L233.3,170.6 L233.5,168.7 L234.1,167.7 L234.5,167.1 L237.7,167.8 L241.2,167.4 L242.5,168.2 L245.5,171.8 L246.5,172.4 L247.8,172.6 L246.1,171.8 L242.4,167.4 L241.3,166.8 L239.7,166.7 L238.6,166.3 L238.0,165.6 L237.8,165.0 L237.8,160.6 L237.2,159.9 L236.4,159.7 L235.9,160.0 L234.8,160.0 L234.6,159.0 L234.9,158.2 L237.0,157.7 L238.3,157.1 L238.4,155.8 L237.5,154.9 L236.5,153.2 L235.3,151.5 L235.0,148.2 L234.8,147.2 L234.0,145.7 L235.1,145.4 L234.9,142.4 L234.5,140.9 L231.4,139.3 L229.0,137.8 L229.6,132.7 L229.8,131.3 L228.9,128.6 L229.0,125.5 L229.4,120.7 L230.1,120.5 L230.7,120.5 L232.9,121.4 L233.8,121.5 L234.4,122.3 L235.1,122.6 L235.7,121.7 L235.9,120.3 L237.6,118.5 L238.8,117.8 L239.6,117.5 L240.5,118.2 L241.1,119.1 L241.3,117.3 L241.8,113.8 L240.1,113.3 L238.8,113.7 L237.5,115.9 L236.3,118.7 L234.4,118.9 L232.8,119.7 L231.4,118.9 L230.6,118.2 L230.5,117.1 L230.7,116.5 L232.4,114.3 L234.5,112.1 L236.7,112.1 L238.3,111.4 L239.3,111.4 L242.3,111.5 L243.8,111.0 L245.2,110.0 L248.2,105.9 L249.8,104.1 L253.2,103.5 L256.3,101.5 L257.2,101.5 L255.7,103.0 L255.5,103.6 L255.3,104.4 L256.4,106.4 L256.1,107.6 L256.2,109.9 L255.2,111.1 L254.1,113.6 L253.6,114.0 L253.5,117.0 L253.6,117.7 L253.5,120.5 L254.6,121.6 L255.8,122.2 L259.9,122.1 L260.3,122.6 L260.8,123.5 L260.4,124.9 L260.0,126.0 L258.8,126.9 L257.3,127.6 L256.4,127.6 L255.1,126.3 L254.5,126.7 L253.9,127.4 L252.8,130.9 L252.3,133.3 L252.1,133.5 L251.5,133.1 L250.5,133.1 L249.2,133.7 L249.8,134.2 L250.5,135.1 L250.2,135.5 L249.1,136.0 L248.1,136.9 L247.7,137.7 L246.4,138.5 L245.6,139.6 L246.0,141.0 L246.2,142.2 L246.5,143.5 L246.2,144.5 L244.6,146.0 L244.0,147.3 L245.4,147.3 L246.2,147.6 L246.7,148.0 L247.2,148.5 L246.9,149.2 L247.4,151.3 L249.0,151.7 L249.7,152.4 L250.5,153.5 L250.6,155.1 L249.6,156.3 L248.8,157.0 L251.9,156.7 L252.2,157.3 L252.7,158.0 L254.4,157.5 L258.6,159.6 L261.1,158.6 L261.8,158.6 L262.4,160.2 L261.7,161.9 L259.5,163.7 L260.0,164.8 L260.7,165.1 L262.8,164.8 L266.2,165.9 L266.9,165.6 L269.6,163.1 L270.7,162.5 L274.3,162.1 L274.9,161.2 L276.4,160.2 L277.3,159.1 L279.6,157.1 L281.9,157.4 L283.2,157.8 L284.7,158.0 L286.1,160.2 L289.5,162.6 L292.6,162.4 L293.7,164.7 L294.2,167.5 L295.2,168.4 L296.0,169.0 L298.6,169.6 L301.3,170.6 L302.4,171.1 L302.3,170.5 L302.0,170.0 L302.2,169.2 L302.1,168.0 L299.7,167.4 L297.7,167.1 L296.3,167.3 L294.9,167.1 L294.6,166.0 L294.9,165.1 L294.3,164.4 L293.8,164.0 L293.7,163.4 L293.8,162.8 L296.2,164.4 L298.2,165.8 L298.6,166.2 L300.1,166.3 L303.9,164.7 L310.4,162.6 L317.4,160.7 L319.0,160.5 L320.6,160.1 L321.2,159.3 L321.8,158.9 L322.8,157.6 L324.9,155.6 L328.6,154.9 L330.0,153.9 L332.9,152.6 L339.5,151.1 L342.2,150.8 L344.9,150.8 L347.3,151.9 L349.9,153.4 L350.4,154.2 L349.0,153.7 L347.0,152.4 L346.2,152.3 L347.9,156.3 L348.9,157.7 L350.8,158.7 L352.4,159.1 L357.3,158.4 L359.0,157.6 L359.5,157.2 L361.3,155.7 L362.4,154.2 L363.4,152.2 L363.5,150.9 L363.7,149.3 L365.2,148.7 L368.5,148.8 L369.9,148.1 L371.7,146.3 L373.6,144.1 L374.2,143.1 L375.5,141.2 L376.0,139.9 L376.4,138.1 L376.7,137.5 L376.7,138.3 L376.6,139.7 L375.7,142.0 L373.8,144.9 L370.8,148.3 L371.7,148.8 L372.8,148.9 L374.1,149.5 L375.3,149.7 L377.5,149.1 L377.9,146.2 L378.1,143.4 L377.7,142.2 L378.1,140.3 L377.3,137.5 L376.1,134.2 L376.0,130.6 L375.9,129.8 L375.6,126.6 L375.7,120.2 L376.2,117.0 L378.3,115.1 L379.4,113.7 L380.0,111.8 L380.2,110.0 L380.6,108.5 L383.7,104.3 L386.1,103.8 L389.4,102.7 L393.1,101.7 L393.8,102.9 L394.1,103.9 L398.6,107.3 L399.7,108.5 L401.4,112.5 L405.5,114.5 L408.7,113.9 L410.1,112.9 L412.7,111.1 L413.9,109.7 L414.1,108.5 L413.6,103.0 L412.9,100.7 L413.2,99.2 L413.3,98.5 L414.8,95.2 L415.1,92.6 L415.6,92.2 L415.8,91.8 L415.5,91.0 L414.0,90.4 L413.3,90.5 L412.8,91.4 L412.2,92.1 L410.8,92.5 L409.6,91.8 L406.9,90.9 L406.2,89.6 L406.0,88.4 L404.5,87.2 L403.9,85.8 L404.2,84.8 L405.5,84.2 L405.9,83.6 L404.2,83.7 L403.9,83.6 L403.8,83.1 L403.0,81.3 L403.7,80.7 L404.0,80.0 L403.5,79.5 L403.6,78.8 L404.0,78.2 L403.8,76.7 L405.4,75.9 L407.0,75.3 L410.5,75.0 L410.1,73.7 L411.5,73.6 L413.8,72.0 L416.1,72.3 L419.5,71.1 L425.9,71.1 L426.8,70.5 L426.7,69.8 L426.7,69.1 L427.9,69.3 L429.9,69.2 L437.5,70.6 L439.4,70.6 L442.0,72.0 L443.3,72.3 L447.5,72.3 L453.8,73.0 L455.0,72.0 L455.2,71.8 L455.7,70.6 L455.5,69.0 L455.2,67.7 L455.7,66.7 L456.5,66.6 L457.4,67.7 L458.8,68.2 L459.8,67.5 L460.2,66.2 L460.9,65.6 L461.9,66.1 L463.5,66.3 L464.9,66.2 L465.8,65.9 L466.2,65.5 L466.5,64.7 L467.3,63.7 L468.1,63.0 L474.0,63.8 L479.2,65.1 L479.5,64.6 L479.7,63.7 L478.4,63.0 L477.5,62.6 L476.3,60.9 L474.6,59.7 L472.9,59.6 L470.6,60.0 L467.2,59.7 L464.3,57.4 L462.3,56.6 L460.9,54.8 L460.6,53.8 L462.1,54.6 L462.3,53.8 L462.4,52.6 L461.6,51.9 L460.8,51.5 L457.0,53.3 L452.7,53.9 L452.3,53.9 L451.2,54.5 L449.6,54.7 L448.9,55.1 L446.4,53.8 L446.0,53.8 L444.5,54.1 L443.1,55.0 L440.5,55.3 L439.2,55.6 L438.3,56.0 L438.2,55.0 L438.5,53.7 L439.1,52.9 L439.2,52.3 L438.7,52.4 L437.9,53.6 L437.5,55.1 L436.6,55.8 L434.6,56.1 L432.7,54.9 L431.8,54.9 L432.3,55.8 L432.7,56.7 L432.7,57.2 L431.6,57.1 L430.5,57.7 L429.5,58.5 L429.0,58.5 L428.4,57.3 L427.1,57.9 L426.1,58.6 L423.9,58.8 L422.7,59.7 L420.4,60.3 L419.2,60.3 L416.3,61.1 L415.4,62.2 L414.6,62.6 L413.4,62.3 L409.8,62.8 L406.3,63.6 L404.9,63.5 L403.4,63.2 L401.8,64.3 L400.2,65.6 L398.4,66.1 L397.7,66.0 L398.2,65.2 L399.4,64.5 L400.3,63.5 L400.4,62.6 L399.8,62.3 L399.0,62.2 L398.1,61.3 L397.1,59.4 L396.6,59.3 L396.4,59.8 L396.1,61.3 L395.8,61.7 L395.3,62.0 L394.7,62.4 L394.1,62.5 L392.0,62.5 L391.7,61.8 L391.7,61.5 L392.1,60.5 L391.8,60.3 L392.1,59.6 L392.6,59.6 L393.2,59.5 L393.5,59.1 L393.4,58.7 L392.6,58.5 L392.6,58.2 L393.3,56.9 L393.4,56.5 L393.1,56.5 L392.7,56.6 L389.7,56.2 L386.0,54.5 L385.1,54.4 L384.5,52.9 L383.7,53.1 L382.4,54.0 L381.4,53.3 L380.3,52.9 L380.1,52.2 L380.1,51.2 L380.0,50.0 L379.7,48.5 L379.5,46.6 L379.6,46 L332.3,46 L332.3,46.2 L332.2,46.8 L333.1,49.2 L332.9,50.0 L332.7,51.1 L334.0,52.1 L335.1,52.1 L336.2,52.1 L336.6,52.3 L337.1,53.1 L337.4,53.9 L338.3,53.8 L339.8,53.1 L340.8,53.0 L341.4,54.3 L343.1,56.1 L344.1,56.9 L345.8,57.3 L347.6,58.7 L347.3,60.4 L348.1,61.0 L350.2,61.6 L351.0,62.6 L351.3,63.3 L351.9,64.0 L352.5,65.9 L352.3,67.1 L351.4,67.5 L349.4,68.8 L348.5,69.8 L347.8,70.4 L345.8,71.7 L345.1,71.9 L344.4,72.6 L343.7,72.9 L343.1,72.7 L340.9,73.9 L341.0,74.4Z"/></defs>
<use href="#land_m12_32_35_61" fill="#EDE9F3"/>
<path d="M278.0,370.7 L278.0,370.7 M65.8,163.5 L60.9,164.0 L60.9,162.2 L59.1,161.4 L56.8,158.1 L54.6,159.9 L55.1,160.9 L53.2,162.7 L50.0,162.6 L47.2,161.3 L46.8,160.2 L44.2,158.0 L44.1,156.9 L48.3,154.9 L46.5,153.1 L50.6,151.9 L52.6,147.5 L54.4,146.4 M474.4,313.6 L472.8,311.7 L471.0,310.9 L465.2,313.1 L463.9,312.7 L463.7,314.0 L460.1,313.0 L457.4,310.3 L460.7,309.2 L460.6,306.7 L463.3,303.5 L463.4,302.1 L465.8,300.2 L466.5,298.0 L465.9,293.2 L468.5,292.1 L468.7,294.6 L469.9,293.1 L473.4,294.2 L474.4,293.4 L475.9,295.0 L478.6,294.6 L479.3,293.8 L476.9,291.8 L477.1,288.7 L476.4,286.9 L472.9,284.6 L472.5,279.4 L467.9,275.7 L468.6,269.0 L467.4,267.4 L465.5,267.8 L463.8,265.0 L461.0,264.4 L460.3,265.5 L459.8,264.5 L458.9,264.5 L458.3,262.9 L456.0,262.6 L453.0,259.9 L449.9,258.9 L446.2,260.7 L441.9,260.4 L439.3,262.6 L435.7,263.5 L434.1,267.1 L426.2,268.5 L422.8,270.0 L421.7,271.3 L419.7,271.8 L415.0,267.9 L411.5,268.6 L405.7,267.1 L402.8,267.2 L399.7,265.5 L396.7,267.9 L395.5,265.1 L393.4,264.7 L392.7,263.5 L390.7,262.6 L389.6,260.1 L388.3,260.1 L388.4,257.3 L390.1,255.3 L392.9,248.8 L396.0,249.6 L396.4,248.9 L394.8,247.1 L395.1,245.0 L394.1,240.8 L394.8,239.7 L406.2,226.6 L409.2,226.0 L410.5,224.0 L409.3,219.6 L410.6,218.2 L405.7,210.7 L405.1,205.6 L407.1,205.2 L409.3,205.9 L413.6,201.3 L423.9,200.1 L431.4,200.5 L441.1,202.9 L445.2,203.2 L447.0,205.8 L451.5,206.3 L451.6,207.9 L453.4,205.9 L455.1,206.5 L457.1,205.7 L461.8,206.8 L463.3,208.6 L464.7,206.8 L467.5,205.3 L470.3,209.5 L479.6,207.9 L481.3,209.2 L481.6,210.5 L484.0,211.5 L485.0,210.0 L483.8,205.9 L484.4,204.3 L486.4,200.8 L488.9,198.2 L495.7,197.2 L501.0,198.0 M432.7,390.6 L436.0,386.8 L436.0,381.9 L439.4,379.2 L438.9,375.8 L435.9,373.3 L436.4,372.4 L438.1,372.0 L438.9,369.9 L446.4,367.4 L449.7,370.3 L453.6,369.2 L455.2,369.5 M230.8,488.0 L232.0,484.5 L230.3,474.4 L231.5,464.7 L229.9,462.2 L232.6,458.1 L234.3,456.8 L234.1,455.1 M244.8,275.1 L246.0,276.1 L244.4,282.9 L248.5,283.9 L248.9,285.1 L251.8,286.5 L254.2,284.3 L255.4,285.7 L255.2,291.6 L253.4,291.4 L252.5,290.4 L251.2,290.8 L250.7,292.8 L251.7,297.0 L250.7,297.0 L249.6,294.8 L244.9,295.8 L243.7,292.8 L242.3,292.6 L241.7,296.1 L238.9,300.7 L239.4,303.1 L238.4,303.9 L236.4,301.1 L236.8,299.7 L234.8,299.1 L232.7,296.8 L232.3,293.4 L228.6,296.4 L228.9,298.3 L227.4,300.7 L225.1,302.3 L222.3,301.4 L217.6,303.0 L216.8,302.6 L213.5,298.2 L214.0,296.3 L213.4,293.9 L209.6,293.7 L207.4,295.3 L207.9,296.7 L207.0,297.7 L204.4,298.4 L204.4,297.4 L205.8,296.3 L206.2,294.6 L205.4,293.7 L206.6,290.6 L209.4,288.2 L209.9,284.9 L212.3,283.5 L215.6,279.5 L216.1,278.2 L215.0,277.3 L216.7,275.7 L219.2,276.8 L220.9,276.3 L223.1,273.9 L226.7,274.4 L232.7,273.9 L234.0,272.9 L232.1,272.3 L234.0,270.8 L237.5,272.8 L241.0,272.6 L244.8,275.1 M266.0,79.4 L267.0,81.5 L268.9,81.3 L270.7,75.1 L269.4,69.9 L271.1,68.1 L272.2,65.3 L274.9,64.5 L278.5,61.2 L279.7,55.3 L276.4,46.0 M116.1,345.1 L117.0,346.8 L120.5,347.9 L119.7,350.8 L120.3,351.4 L121.7,350.3 L123.1,351.6 L127.8,353.0 L129.8,355.4 L133.1,355.0 L136.0,357.3 L138.8,356.8 L143.7,357.3 L144.4,354.6 L151.9,357.3 L153.0,361.6 L155.9,360.4 L158.4,361.8 L159.1,362.9 L161.5,361.8 L166.7,363.2 L167.2,362.1 L169.4,361.2 L173.0,361.7 M52.3,450.9 L51.1,444.0 L51.8,441.6 L54.8,436.9 L56.6,436.2 L57.4,433.8 L55.7,433.9 L53.0,429.2 L53.7,424.9 L56.4,421.6 L56.9,419.0 L54.9,417.7 L53.1,412.1 L50.8,408.8 L55.5,408.4 L57.2,406.4 L58.1,402.6 L56.5,400.1 L59.0,397.2 L58.7,389.8 L57.7,385.8 L65.8,377.0 L64.7,375.1 L62.1,374.6 L61.2,370.0 L55.2,369.3 L54.5,370.8 L52.3,371.8 L46.4,371.0 L43.8,372.2 L42.9,370.8 L44.0,368.7 L42.5,366.7 L38.8,368.1 L36.7,370.0 M388.3,260.1 L384.1,261.3 L380.5,257.6 L376.1,258.4 L371.3,257.7 L369.6,258.0 L367.8,262.0 L362.9,264.8 L359.7,263.2 L357.9,265.1 L351.7,266.1 L350.3,267.0 L349.5,270.6 L338.5,270.9 L333.5,267.2 L330.9,266.3 L328.4,260.4 L329.7,255.5 L332.0,252.4 L335.4,252.9 L338.5,251.9 L342.2,248.9 L343.1,245.6 L348.0,241.6 L351.9,241.5 L352.3,243.3 L354.3,243.2 L355.5,241.3 L357.7,239.8 L359.8,243.1 L361.4,243.7 L361.8,246.7 L363.1,246.2 L364.7,246.9 L365.9,244.6 L368.1,243.5 L371.0,243.3 L374.8,244.6 L376.3,242.9 L379.4,242.7 L385.5,244.2 L387.0,246.4 L392.9,248.8 M324.4,292.5 L322.2,291.9 L321.2,292.8 L321.1,294.7 L319.3,294.7 L317.7,296.3 L314.4,297.6 L313.9,298.6 L314.7,300.2 L314.5,303.3 L310.3,305.5 L311.2,306.8 L310.4,308.1 L311.0,310.1 L304.8,309.9 L302.2,306.8 L300.0,309.8 L295.7,309.3 L294.4,310.7 L291.0,309.2 M292.6,308.0 L294.3,307.5 L292.6,305.1 L291.0,304.2 L291.4,301.7 L289.8,300.8 L291.6,298.0 L289.2,297.4 L288.7,296.6 L292.3,292.2 L302.0,294.2 L305.9,290.7 L312.1,290.3 L315.9,288.9 L318.0,289.5 L318.2,287.4 L319.6,286.3 L321.7,286.4 L324.4,292.5 M379.5,320.9 L382.6,322.9 L385.7,323.7 L387.8,325.8 L392.4,323.0 L395.0,324.7 L395.1,325.3 L392.5,326.7 L392.8,328.6 L394.8,331.0 L393.9,331.7 L393.6,333.7 L391.5,334.9 L391.0,338.7 L393.1,344.3 L397.9,348.8 L394.8,354.0 L392.1,354.7 L391.7,358.3 L392.7,361.5 L390.7,363.7 L389.5,362.9 L381.8,364.8 L381.3,363.4 L382.3,362.4 L383.9,357.6 L379.8,356.2 L380.0,354.9 L376.0,350.4 L373.6,349.1 L373.1,347.6 L371.1,348.6 L371.1,351.4 L369.4,352.8 L369.3,354.4 L367.9,354.9 L367.1,353.1 L359.6,349.1 L354.9,343.8 L355.5,342.1 L357.8,342.4 L358.3,341.1 L355.4,335.6 L358.9,335.2 L359.3,334.3 L354.1,329.4 L354.1,326.8 L356.7,320.4 L355.3,319.5 L352.7,320.2 L353.8,318.4 L353.3,315.7 L354.2,314.7 L356.1,315.2 L357.2,314.4 L352.7,311.2 L353.4,309.2 L351.7,307.8 L352.0,306.9 L350.8,303.8 L351.6,302.2 L353.6,300.7 L355.8,301.0 L359.6,298.1 L366.4,298.9 L372.1,305.5 L372.8,305.3 L373.0,310.0 L375.7,312.5 L381.0,315.5 L379.4,317.8 L381.4,319.7 L379.5,320.3 L379.5,320.9 M278.5,336.7 L277.5,336.1 L278.7,335.2 L278.5,336.7 M497.8,197.3 L495.7,193.7 L496.1,189.7 L495.0,187.1 L495.6,186.1 L492.1,181.7 L493.9,178.7 L496.7,178.6 L498.8,180.2 L501.0,180.4 M501.0,168.5 L497.7,168.2 L498.5,164.5 L493.7,161.7 L491.2,157.3 L490.0,156.6 L490.9,154.4 L486.8,151.7 L487.2,149.4 L488.9,147.1 L487.0,142.8 L488.0,141.2 L488.1,138.3 L480.4,133.6 L477.0,133.6 L471.9,136.4 L470.4,134.7 L470.9,132.5 L469.6,131.5 L466.7,130.6 L464.0,132.0 L461.4,129.4 L458.2,130.0 L456.7,128.6 L456.9,124.4 L453.7,117.0 L452.8,116.3 L450.9,116.6 L453.1,109.0 L449.8,106.7 L449.4,105.4 L447.7,104.6 L449.8,100.4 L452.5,99.2 L451.3,98.1 L449.3,93.2 L449.7,89.6 L448.6,83.6 L452.3,79.1 L453.8,75.3 L456.7,73.6 L455.2,71.8 M452.7,53.9 L459.6,47.8 L462.2,46.0 M378.1,143.5 L379.8,143.3 L387.6,146.9 L393.2,147.0 L393.9,148.5 L396.1,150.2 L394.5,155.4 L395.5,158.9 L359.5,157.2 M374.2,143.1 L374.9,143.3 M461.7,339.4 L457.5,338.9 L455.6,338.0 L453.7,335.2 L452.0,335.7 L448.5,334.7 L444.6,332.2 L434.7,334.9 L430.2,339.0 L426.5,340.6 L400.7,337.1 L397.2,337.8 L396.6,335.9 L398.5,333.7 L394.8,331.0 M366.8,299.2 L369.8,298.2 L371.0,298.7 L372.7,296.8 L375.8,296.9 L376.8,296.2 L378.4,294.0 L379.0,290.7 L381.0,289.0 L382.9,283.3 L386.7,277.3 L386.8,275.4 L390.1,271.6 L393.7,271.0 L396.7,267.9 M439.3,262.6 L441.2,262.7 L443.4,264.4 L450.6,278.2 L455.8,284.4 L457.7,290.1 L457.8,293.3 L456.1,301.5 L456.8,307.0 L455.9,307.8 L457.4,310.3 M350.7,241.3 L350.4,239.6 L348.0,237.1 L347.7,235.1 L344.7,234.5 L341.6,232.4 L339.3,233.3 L337.0,231.0 L336.6,230.3 L338.2,229.1 L337.9,227.8 L334.6,228.7 L331.6,226.6 L328.5,225.7 L329.8,229.0 L325.8,231.3 L320.9,225.8 L323.3,223.2 L321.7,221.9 L318.6,222.6 L315.4,220.4 L311.2,219.2 L310.1,216.7 L307.1,215.8 L306.9,217.9 L305.0,218.4 L307.3,211.7 L306.1,208.1 L304.0,207.1 L304.0,204.8 L302.6,201.8 L304.3,197.6 L302.1,192.9 L302.8,190.0 L297.2,184.1 L300.4,178.6 L298.7,169.6 M298.2,167.2 L298.2,165.8 M395.5,158.9 L396.1,158.3 L397.9,158.8 L403.3,162.6 L404.9,171.8 L408.2,181.5 L408.4,187.0 L402.8,190.2 L400.1,194.1 L405.6,198.3 L405.3,202.2 L404.3,203.9 L405.0,207.2 M204.7,220.2 L201.9,220.1 L200.7,218.7 L201.9,216.8 L202.4,213.4 L198.8,211.2 L195.8,211.3 L193.7,208.0 L191.7,209.1 L190.6,207.7 L189.2,208.8 L187.7,207.9 L186.4,208.7 L186.3,209.9 L184.6,209.4 M218.4,177.2 L218.3,182.0 L216.5,187.9 L212.8,188.5 L213.3,191.1 L215.8,191.5 L216.5,192.5 L215.9,195.5 L213.0,197.6 L213.9,199.6 L210.6,201.5 L208.8,202.0 L206.6,201.0 L204.2,202.4 L207.0,208.3 L205.6,212.2 L206.2,213.5 L203.1,215.5 L205.3,217.6 L204.7,220.2 M184.6,209.4 L184.0,210.8 L180.9,212.5 L177.2,211.1 L175.5,211.8 L174.6,209.6 M111.3,486.2 L112.0,488.0 M367.9,354.9 L366.2,356.2 L364.6,356.1 L364.8,359.5 L363.3,360.4 L361.6,360.9 L360.9,358.2 L360.1,358.3 L355.8,366.1 L356.7,367.8 L356.5,371.2 M347.1,361.6 L346.2,360.1 L347.5,358.1 L346.6,355.8 L346.5,352.0 L348.4,351.5 L348.9,348.1 L350.9,346.1 L352.9,347.0 L352.1,343.0 L354.8,342.9 M220.4,339.6 L221.1,339.2 M390.7,363.7 L393.4,367.2 L396.3,369.1 L398.2,373.4 L397.3,379.9 L395.7,380.4 L395.0,383.0 L393.6,383.6 L386.7,383.8 L384.2,386.8 L381.9,388.2 L380.0,387.6 L375.0,388.6 L374.6,387.6 L372.4,387.6 L369.6,381.4 L369.1,377.1 L369.9,376.2 L370.3,371.3 L372.3,371.1 L372.9,367.8 L376.1,366.1 L378.6,367.3 L379.8,365.3 L381.8,364.8 M206.1,230.9 L207.1,234.4 L210.3,236.4 L208.7,242.3 L206.8,241.5 L204.9,242.4 L202.4,240.8 L203.4,239.0 L201.6,236.3 L201.8,234.4 L204.5,230.2 L206.1,230.9 M375.9,129.8 L382.8,125.7 L387.7,124.1 L396.7,124.3 L398.6,125.5 L400.4,124.8 L407.4,125.4 L410.9,126.5 L414.9,126.2 L419.1,124.0 L421.7,127.6 L428.4,129.2 L435.5,135.2 L439.0,136.7 L437.5,142.2 L441.1,143.4 L439.1,145.8 L435.6,145.6 L434.3,147.9 L430.7,149.4 L429.1,152.8 L429.1,155.4 L427.1,159.4 L429.4,160.6 L429.4,162.3 L426.7,162.3 L426.1,160.0 L421.4,162.7 L419.4,162.5 L418.2,165.4 L416.6,165.3 L413.1,166.8 L411.7,165.8 L406.5,166.5 L403.6,166.0 M244.9,279.4 L245.5,283.0 M413.2,99.2 L422.1,95.9 L423.8,97.1 L424.1,96.2 L432.2,99.8 L435.6,103.8 L437.5,104.7 L443.2,103.6 L447.6,105.0 M456.7,128.6 L453.8,129.7 L450.9,132.5 L450.2,134.4 L444.2,133.9 L441.6,135.9 L439.0,136.7 M370.4,371.1 L369.5,365.2 L366.7,363.2 L364.7,359.7 M255.4,286.3 L261.6,287.8 L263.2,285.1 L264.4,284.4 L270.5,284.2 L274.9,282.6 L274.8,285.1 L277.4,289.1 L292.3,292.2 M221.7,339.0 L221.6,337.3 L223.8,333.6 L223.4,332.2 L219.8,332.7 L215.0,329.3 L214.3,326.3 L216.5,322.8 L216.0,320.9 L213.2,319.3 L212.0,316.8 L212.6,315.5 L214.3,315.7 L217.0,313.9 L217.8,311.5 L213.8,305.4 L213.9,304.2 L216.4,302.3 M351.6,302.2 L348.8,302.6 L347.3,304.5 L345.3,305.2 L339.1,304.6 L336.8,302.5 L333.4,301.1 L328.4,295.2 L324.4,292.5 M319.6,286.3 L321.4,284.5 L323.7,283.9 L323.5,277.2 L325.6,276.4 L326.2,274.9 L325.8,273.6 L323.3,272.5 L325.2,271.2 L327.4,272.5 L330.6,272.0 L330.2,269.8 L331.6,266.9 M364.0,407.9 L365.5,408.8 L366.8,408.5 L367.5,406.5 L368.4,406.4 L367.5,403.3 L371.5,401.0 L373.2,395.4 L374.8,394.6 L375.7,392.4 L375.0,388.6 M397.2,380.3 L399.9,380.5 L400.9,379.5 L405.4,379.4 L409.6,378.2 L410.1,377.0 L415.1,376.6 L418.3,379.9 L419.1,379.3 L420.8,379.8 L423.7,381.9 L429.8,380.4 L431.4,380.7 L433.8,379.4 L433.2,374.0 L434.5,373.4 L435.9,373.8 M223.1,273.9 L222.2,272.5 L223.1,264.3 L225.7,256.2 L229.1,251.9 L229.0,250.4 L223.1,248.9 L221.3,247.4 L216.5,248.1 L216.1,246.9 L214.9,246.5 L213.1,247.3 L210.8,243.3 L208.7,242.3 M206.1,230.9 L206.7,229.0 L208.9,227.6 L208.6,225.3 L207.1,224.5 L206.7,223.7 L207.4,222.9 L204.7,220.2 M235.1,149.6 L237.8,149.8 L241.8,151.3 L245.9,150.5 L247.3,151.0 M305.0,218.4 L304.5,219.1 L303.2,218.8 L302.0,216.1 L299.4,215.4 L298.7,216.0 L300.0,217.7 L290.7,221.0 L289.3,222.8 L288.6,222.4 L286.4,224.3 L284.6,224.7 L283.7,226.1 L281.7,225.7 L279.3,226.3 L276.2,229.9 L275.0,228.1 L274.0,227.9 L275.4,231.3 L278.8,234.8 L277.4,237.4 L280.8,243.0 L282.3,244.4 L283.4,244.4 L288.9,250.4 L290.6,250.7 L293.6,254.0 L292.6,257.8 L289.9,257.1 L288.6,260.9 L283.2,263.5 L281.7,265.2 L283.9,268.9 L283.2,271.7 L285.0,272.9 L284.5,275.9 L282.2,274.8 L281.8,273.1 L280.8,272.6 L278.5,273.2 L275.4,271.8 L275.1,273.5 L269.8,274.1 L265.0,276.8 L262.1,277.3 L260.2,275.2 L255.3,274.6 L254.5,277.8 L252.3,279.3 L252.5,277.8 L251.0,277.3 L249.9,275.4 L247.4,274.2 L244.8,275.1 M155.9,360.4 L156.0,358.7 L153.6,358.1 L152.8,358.9 M165.2,214.3 L166.0,218.1 L167.9,220.2 L168.8,220.9 L171.8,219.7 L173.3,221.7 L173.7,224.0 L177.4,224.9 L178.5,227.8 L179.1,227.2 L181.4,227.3 L184.0,228.8 L183.7,233.5 L188.2,233.7 L191.3,230.4 L191.8,230.7 L191.0,233.7 L191.9,236.6 L196.6,238.5 L199.1,241.3 L202.4,240.8 M329.3,256.8 L328.6,255.0 L324.7,253.5 L322.7,254.4 L319.2,254.2 L316.5,252.3 L310.7,250.4 L309.0,250.9 L307.9,250.0 L306.8,250.3 L306.3,253.9 L304.7,254.3 L303.6,256.8 L296.3,256.8 L295.6,255.2 L293.6,254.0 M352.7,320.2 L350.8,320.0 L348.8,316.7 L341.2,315.6 L339.1,316.7 L337.3,315.2 L335.6,316.0 L331.3,315.1 L329.0,313.3 L327.5,314.7 L324.5,314.3 L321.8,317.8 L318.8,314.8 L317.2,314.3 L316.1,315.0 L315.5,322.0 L319.7,326.1 L321.9,332.9 L330.8,343.2 L333.0,344.4 L333.2,346.8 L337.3,351.9 L336.5,353.0 M337.5,353.7 L339.0,353.7 L342.7,357.3 L346.2,359.5" fill="none" stroke="#9D95B3" stroke-width="0.9" stroke-dasharray="4 2"/>
<use href="#land_m12_32_35_61" fill="none" stroke="#8E86A3" stroke-width="0.9"/>
<text x="250.5" y="30" text-anchor="middle" font-size="16" font-weight="bold" fill="#4A4259">ヨーロッパ州の地図</text>
<text x="45.5" y="275.5" text-anchor="middle" font-size="14" fill="#2E6B8C" stroke="#FFFFFF" stroke-width="3" paint-order="stroke">大西洋</text>
<text x="170.6" y="122.5" text-anchor="middle" font-size="14" fill="#2E6B8C" stroke="#FFFFFF" stroke-width="3" paint-order="stroke">北海</text>
<text x="307.1" y="440.4" text-anchor="middle" font-size="14" fill="#2E6B8C" stroke="#FFFFFF" stroke-width="3" paint-order="stroke">地中海</text>
<circle cx="253.7" cy="216.0" r="13" fill="#FFD97D" stroke="#4A4259" stroke-width="2"/>
<text x="253.7" y="222.0" text-anchor="middle" font-size="17" font-weight="bold" fill="#4A4259">A</text>
<circle cx="163.8" cy="287.4" r="13" fill="#FFD97D" stroke="#4A4259" stroke-width="2"/>
<text x="163.8" y="293.4" text-anchor="middle" font-size="17" font-weight="bold" fill="#4A4259">B</text>
<circle cx="116.0" cy="185.4" r="13" fill="#FFD97D" stroke="#4A4259" stroke-width="2"/>
<text x="116.0" y="191.4" text-anchor="middle" font-size="17" font-weight="bold" fill="#4A4259">C</text>
<circle cx="94.4" cy="399.6" r="13" fill="#FFD97D" stroke="#4A4259" stroke-width="2"/>
<text x="94.4" y="405.6" text-anchor="middle" font-size="17" font-weight="bold" fill="#4A4259">D</text>
<text x="250.5" y="504" text-anchor="middle" font-size="12" fill="#4A4259">印は、おおよその位置を示す</text>
</svg>
