<svg xmlns="http://www.w3.org/2000/svg" viewBox="0 0 400 484" font-family="'Hiragino Maru Gothic ProN','Hiragino Sans','Yu Gothic',sans-serif">
<rect width="400" height="484" fill="#FFFFFF"/>
<rect x="0" y="46" width="400" height="416" fill="#E3F6F2"/>
<path d="M320.4,46 L319.1,48.2 L317.1,46Z M354.9,95.0 L360.6,95.4 L368.4,99.3 L373.2,99.9 L376.4,98.5 L386.6,89.5 L386.2,92.0 L381.6,101.4 L381.1,104.1 L381.9,106.8 L386.0,116.1 L389.0,116.7 L392.8,113.9 L396.1,114.0 L391.8,116.4 L389.4,119.5 L386.2,119.4 L377.4,124.0 L371.5,125.4 L362.6,124.7 L357.9,127.1 L350.0,134.4 L346.9,139.1 L344.5,147.8 L342.9,150.0 L328.0,143.3 L314.5,134.9 L305.4,135.8 L296.8,141.1 L291.1,135.6 L286.4,135.5 L283.8,138.7 L283.3,142.4 L287.4,146.6 L291.6,147.0 L300.2,155.1 L297.1,156.8 L290.1,154.8 L286.6,158.5 L284.5,162.5 L282.1,164.1 L279.6,165.0 L277.3,163.7 L276.5,161.0 L278.8,152.3 L277.8,148.2 L273.2,142.8 L273.7,134.9 L274.4,133.1 L278.9,130.9 L285.4,125.2 L286.6,122.7 L284.7,119.6 L284.6,116.1 L286.6,115.2 L293.4,118.7 L299.9,119.3 L303.2,118.8 L304.7,116.7 L305.5,114.1 L305.2,107.3 L310.3,97.5 L310.6,91.1 L312.7,85.5 L313.1,79.4 L311.8,73.5 L309.0,67.9 L310.8,61.6 L314.1,60.6 L316.3,58.8 L326.1,68.8 L335.7,80.6 L344.0,87.7 L354.9,95.0Z M301.8,166.3 L302.6,166.8 L306.4,165.5 L305.3,173.5 L305.9,183.2 L306.6,186.1 L310.3,189.7 L313.4,194.4 L317.4,207.4 L317.1,216.9 L315.5,225.1 L310.6,228.7 L308.3,234.2 L306.7,243.5 L299.3,245.2 L296.3,250.1 L295.6,255.3 L297.8,267.9 L297.1,277.0 L296.4,279.9 L292.8,284.0 L291.5,287.0 L289.4,292.9 L288.3,300.0 L289.3,304.5 L294.5,313.2 L289.7,314.8 L286.0,318.7 L285.1,325.1 L283.9,327.3 L277.8,331.0 L275.0,334.6 L273.4,334.2 L272.5,333.1 L273.4,331.7 L273.0,324.3 L278.6,316.8 L276.3,314.6 L273.2,314.9 L271.8,319.1 L269.4,321.4 L269.7,323.7 L271.3,325.4 L269.9,328.1 L269.1,328.3 L265.8,324.2 L261.2,324.8 L258.9,328.0 L257.9,336.2 L255.7,339.8 L252.8,341.9 L251.2,339.8 L252.1,332.7 L254.1,331.3 L250.4,328.8 L247.4,329.8 L240.8,339.0 L239.5,342.5 L226.3,340.7 L216.4,342.8 L216.7,341.8 L221.0,339.7 L220.8,337.9 L215.8,338.1 L214.4,336.3 L214.0,339.2 L212.5,338.9 L212.1,332.6 L213.0,331.1 L211.1,330.7 L208.8,332.4 L205.6,340.4 L212.7,346.7 L212.1,349.6 L201.4,353.4 L192.9,369.4 L188.4,371.3 L183.4,369.6 L176.8,357.8 L176.2,350.5 L180.5,347.2 L182.6,343.8 L182.7,341.9 L181.4,341.0 L175.0,341.6 L168.8,338.1 L158.7,339.4 L153.0,344.3 L142.3,346.7 L136.1,350.1 L133.6,349.4 L126.1,351.6 L121.3,348.8 L119.1,349.6 L117.6,352.1 L115.7,362.2 L107.4,356.6 L97.0,359.4 L93.7,357.5 L90.5,358.6 L89.9,351.2 L92.3,347.8 L99.5,347.3 L104.7,342.0 L109.7,339.1 L118.0,331.4 L125.4,324.0 L127.0,321.1 L131.6,318.7 L138.6,317.5 L140.9,320.1 L145.8,318.7 L153.3,318.8 L158.0,318.0 L163.0,315.7 L171.7,314.8 L177.7,312.6 L179.6,313.2 L178.9,316.6 L180.8,318.3 L188.1,318.9 L192.7,316.2 L196.6,312.0 L194.8,306.2 L196.0,303.0 L202.0,296.6 L208.9,286.7 L210.0,281.3 L209.4,274.8 L211.9,270.1 L221.7,266.4 L222.0,268.6 L218.2,272.6 L213.6,275.5 L213.1,276.9 L215.0,279.3 L215.5,284.2 L220.2,286.4 L222.1,286.0 L225.7,281.3 L242.2,274.3 L248.6,267.7 L253.7,258.1 L263.6,251.4 L266.8,240.9 L272.5,231.1 L274.8,222.1 L277.3,217.3 L277.9,211.8 L276.5,205.8 L275.5,205.0 L272.7,205.2 L271.3,204.1 L271.6,203.1 L274.7,201.4 L276.8,195.2 L275.0,188.1 L275.9,184.5 L282.4,180.0 L283.6,175.9 L283.1,171.8 L284.5,170.0 L289.5,170.9 L290.5,178.8 L291.9,180.4 L295.8,177.5 L299.5,179.1 L301.7,176.3 L302.1,170.7 L301.2,169.7 L293.0,172.4 L293.0,169.4 L294.2,164.9 L295.8,162.9 L299.2,164.1 L301.8,166.3Z M161.0,351.3 L163.8,352.4 L166.7,352.1 L167.5,362.0 L168.8,362.7 L161.4,368.2 L158.6,372.6 L157.4,377.6 L152.8,372.3 L150.7,371.2 L146.1,370.7 L139.0,374.6 L136.2,381.8 L133.5,384.4 L132.7,388.1 L130.5,390.4 L129.2,390.4 L125.8,390.2 L127.2,386.5 L122.8,386.2 L122.8,383.8 L121.5,382.5 L123.2,376.4 L121.0,375.4 L121.1,372.8 L113.4,375.2 L125.9,366.1 L128.8,358.2 L131.8,355.5 L133.0,355.7 L135.9,359.9 L137.1,359.7 L145.1,357.6 L146.4,354.5 L145.5,351.7 L147.6,351.8 L152.6,349.0 L155.2,348.7 L161.0,351.3Z M95.8,368.3 L99.7,369.2 L104.1,367.0 L106.5,368.3 L106.8,370.9 L103.2,376.9 L110.6,377.4 L109.6,380.9 L111.6,382.8 L110.9,384.7 L112.9,386.1 L112.7,387.1 L105.7,397.9 L101.6,413.0 L101.6,418.6 L99.1,425.5 L93.6,424.6 L92.9,426.2 L94.2,429.3 L90.2,433.1 L85.8,435.6 L87.9,429.0 L86.1,421.0 L88.0,419.8 L87.6,417.6 L85.1,417.3 L83.1,421.4 L82.8,425.5 L84.9,429.0 L83.8,431.4 L75.8,428.4 L74.7,425.4 L77.7,424.3 L78.3,420.4 L75.6,416.0 L75.7,407.6 L79.8,404.3 L84.8,393.9 L81.9,392.9 L83.4,390.9 L82.9,388.4 L79.5,381.6 L76.6,379.4 L74.3,381.3 L75.3,387.9 L78.4,387.8 L78.7,391.8 L76.7,392.4 L72.8,390.0 L67.0,395.2 L68.2,391.1 L65.4,387.2 L65.1,382.4 L68.2,386.8 L71.5,387.9 L69.6,383.4 L63.1,377.9 L63.7,375.1 L64.7,374.5 L68.5,375.6 L68.1,372.6 L73.2,370.4 L75.2,368.4 L79.2,367.5 L81.6,362.3 L86.4,359.9 L91.2,361.3 L93.4,366.5 L95.8,368.3Z M160.9,345.4 L158.8,347.0 L157.4,344.5 L160.3,344.1 L161.3,344.4 L160.9,345.4Z M400,93.3 L397.8,95.3 L394.7,99.5 L391.1,102.0 L390.4,106.7 L388.0,104.8 L388.5,101.4 L394.4,96.1 L400,87.7Z M84.5,455.2 L80.8,455.1 L79.7,451.9 L81.9,449.9 L85.5,452.5 L84.5,455.2Z M91.4,451.7 L89.6,452.0 L89.5,450.4 L91.1,444.5 L93.4,440.5 L93.4,445.3 L91.4,451.7Z M44.4,389.6 L47.9,390.2 L49.1,393.0 L46.9,393.4 L46.1,394.8 L44.9,394.3 L44.0,392.8 L44.4,389.6Z M73.4,404.0 L71.8,405.0 L70.9,403.7 L72.1,402.4 L71.3,401.0 L71.9,396.4 L75.1,395.9 L75.8,401.1 L73.4,404.0Z M79.5,399.0 L77.7,399.1 L76.7,398.0 L79.2,396.3 L81.2,396.6 L79.5,399.0Z M140.8,300.7 L139.8,301.7 L138.1,301.4 L137.1,300.0 L137.4,298.4 L139.2,297.2 L141.0,299.6 L140.8,300.7Z M242.7,258.6 L240.2,258.4 L241.4,257.8 L242.2,254.8 L240.7,254.1 L240.7,252.0 L245.9,245.8 L244.9,252.0 L247.4,252.3 L245.8,256.5 L242.7,258.6Z M266.0,147.9 L265.0,147.8 L264.9,144.8 L267.5,143.9 L266.0,147.9Z M298.6,63.3 L297.8,65.0 L296.5,59.9 L298.2,60.3 L298.6,63.3Z M303.1,68.9 L300.1,68.0 L299.9,66.6 L301.0,65.6 L302.2,66.0 L303.8,68.1 L303.1,68.9Z M172.8,350.5 L170.6,352.7 L168.6,352.6 L167.3,350.4 L170.8,345.7 L174.2,343.9 L172.2,347.6 L172.8,350.5Z M52.8,388.2 L51.2,385.3 L53.5,380.6 L54.9,384.2 L52.8,388.2Z M61.3,378.2 L58.8,379.4 L60.7,375.4 L62.9,374.6 L61.3,378.2Z M67.5,364.5 L66.1,365.6 L65.0,364.8 L65.9,361.7 L67.1,362.4 L67.5,364.5Z M56.9,354.8 L55.6,355.8 L55.0,354.2 L55.6,349.7 L58.1,350.6 L56.9,354.8Z M59.1,348.8 L58.7,350.1 L56.7,348.4 L57.9,342.2 L60.5,340.1 L61.0,343.9 L59.0,347.2 L59.1,348.8Z M118.1,359.4 L119.1,360.4 L121.8,360.3 L120.1,362.0 L117.0,361.3 L116.9,359.4 L118.1,359.4Z M45.9,337.2 L44.0,338.8 L40.8,335.5 L44.4,331.8 L45.5,331.6 L45.9,337.2Z M32.1,337.0 L31.9,339.6 L30.4,339.7 L29.5,338.1 L28.1,338.9 L27.3,335.3 L29.0,334.1 L31.5,335.2 L32.1,337.0Z M0,371.0 L4.0,369.7 L8.2,370.6 L8.8,372.5 L7.6,375.1 L1.7,377.8 L0,377.9Z M0.4,260.8 L0.3,264.3 L0,264.2 L0,260.4 L0.4,260.8Z M65.9,418.9 L65.3,419.4 L65.7,417.3 L67.4,415.5 L65.9,418.9Z M0.0,46 L232.8,46 L229.2,50.7 L211.1,67.6 L204.1,76.6 L199.8,80.7 L197.6,85.3 L192.1,88.3 L185.1,98.7 L184.1,102.3 L179.5,106.2 L176.8,110.3 L153.9,125.4 L147.7,128.4 L145.2,128.5 L136.5,131.9 L134.4,131.2 L133.1,129.0 L130.4,129.4 L127.2,127.2 L124.5,127.3 L122.5,126.3 L118.9,127.0 L119.0,115.8 L111.6,121.5 L110.0,121.5 L113.0,116.7 L111.4,116.1 L108.5,117.4 L95.4,133.7 L86.2,132.9 L88.8,136.4 L86.7,141.5 L84.8,142.9 L81.1,142.2 L76.5,145.2 L66.7,157.5 L65.3,160.5 L65.2,163.1 L66.8,165.8 L66.9,168.1 L65.8,172.8 L66.4,177.8 L65.7,179.7 L58.2,183.1 L53.5,189.2 L45.1,193.7 L41.2,198.6 L37.0,201.1 L30.0,202.1 L28.0,204.7 L21.9,207.7 L21.1,209.9 L21.5,216.0 L21.0,218.2 L19.6,217.6 L18.9,218.3 L18.3,222.6 L26.4,225.8 L30.2,230.7 L37.5,236.3 L43.4,249.4 L52.3,262.4 L58.1,272.9 L59.8,278.5 L60.9,286.7 L59.3,297.6 L59.5,304.6 L60.6,305.8 L63.0,304.7 L62.7,307.4 L59.8,319.1 L55.6,327.3 L50.8,329.4 L41.2,329.4 L39.3,331.6 L39.8,335.4 L32.7,333.7 L31.5,331.4 L24.9,333.2 L23.3,334.9 L25.5,337.7 L24.9,339.3 L23.2,340.1 L21.0,336.2 L18.5,336.6 L18.2,338.7 L20.1,341.7 L16.9,346.0 L13.8,343.8 L15.6,340.8 L15.3,338.4 L10.9,342.2 L8.1,346.6 L5.2,344.7 L2.3,347.5 L1.7,349.7 L0.6,349.8 L0,346.9 L0,339.8 L0.5,339.9 L0,339.1 L0,337.9 L1.9,336.6 L0,336.6 L0,318.9 L2.3,317.2 L0,316.3 L0,315.0 L4.5,312.0 L5.2,309.3 L3.0,308.0 L4.0,305.6 L0.8,301.7 L1.0,293.6 L0,289.1 L0,279.8 L1.6,279.5 L5.8,281.3 L7.6,284.6 L9.8,281.6 L7.6,280.6 L5.0,275.0 L6.0,272.3 L3.1,268.4 L3.2,265.7 L1.3,261.4 L2.7,259.7 L0,258.4Z" fill="#EDE9F3" stroke="#B9B2C8" stroke-width="0.7"/>
<text x="200.0" y="30" text-anchor="middle" font-size="16" font-weight="bold" fill="#4A4259">江戸時代の対外関係の窓口（位置）</text>
<circle cx="278.6" cy="164.8" r="12" fill="#FFD97D" stroke="#4A4259" stroke-width="2"/>
<text x="278.6" y="170.8" text-anchor="middle" font-size="17" font-weight="bold" fill="#4A4259">A</text>
<circle cx="57.4" cy="347.6" r="12" fill="#FFD97D" stroke="#4A4259" stroke-width="2"/>
<text x="57.4" y="353.6" text-anchor="middle" font-size="17" font-weight="bold" fill="#4A4259">B</text>
<circle cx="69.0" cy="390.5" r="12" fill="#FFD97D" stroke="#4A4259" stroke-width="2"/>
<text x="69.0" y="396.5" text-anchor="middle" font-size="17" font-weight="bold" fill="#4A4259">C</text>
<circle cx="83.2" cy="420.4" r="12" fill="#FFD97D" stroke="#4A4259" stroke-width="2"/>
<text x="83.2" y="426.4" text-anchor="middle" font-size="17" font-weight="bold" fill="#4A4259">D</text>
<text x="200.0" y="478" text-anchor="middle" font-size="12" fill="#4A4259">※記号は、おおよその位置</text>
</svg>
